<svg width="382" height="476" viewBox="0 0 382 476" fill="none" xmlns="http://www.w3.org/2000/svg">
<path d="M164.516 20.1469L178.49 9.89582C180.769 8.24486 183.434 6.4517 185.539 4.65904C187.183 3.25841 187.272 0.332091 190.186 0.0287967C193.933 -0.361483 193.839 3.31276 196.343 5.14484C203.184 10.1547 210.035 15.1212 216.881 20.1094C225.126 15.0114 233.893 10.5214 242.138 5.41464C243.643 4.48183 244.928 -0.88585 249.367 2.11932C250.558 2.92476 250.436 5.12488 251.883 6.46315C257.693 11.8361 263.587 17.1504 269.541 22.3677C275.105 19.8223 280.578 17.1221 286.219 14.6853C289.348 13.1573 293.166 11.8 296.204 10.1939C298.431 9.0171 298.611 5.99967 302.301 6.59896C305.782 7.16463 304.54 9.87983 306.372 12.0871C310.913 17.5555 316.006 22.595 320.488 28.0921C330.37 24.411 341.187 21.3747 351.19 17.9053C353.688 16.9124 354.722 13.9827 357.803 14.415C361.444 14.9255 360.218 18.011 361.475 20.1322C362.47 21.8118 364.148 23.9298 365.349 25.5555L372.661 35.4023L375.464 39.2542L376.427 40.5879L381.446 47.3846C381.494 47.624 381.542 47.8637 381.588 48.1032C378.236 56.8414 374.706 65.5384 371.28 74.2534L330.97 176.314L322.348 198.066C321.19 201.023 318.39 208.739 316.898 211.146C315.225 213.838 297.344 221.373 296.29 224.209C293.878 230.704 290.648 241.454 288.471 248.277L271.074 303.156C267.915 313.152 264.757 323.69 261.37 333.577C265.852 335.383 269.328 338.006 271.216 342.61C272.84 346.666 272.774 351.202 271.036 355.21C268.804 360.263 263.311 364.38 257.703 364.474C249.618 364.611 241.487 364.537 233.397 364.535L186.547 364.527H146.008C138.769 364.535 131.425 364.593 124.183 364.479C122.131 364.449 119.946 363.914 118.079 363.047C114.282 361.317 111.339 358.134 109.91 354.215C108.449 350.125 108.69 345.62 110.578 341.708C112.449 337.884 115.728 335.178 119.689 333.716C114.157 315.42 108.1 296.875 102.332 278.629L84.9472 223.432C81.4792 221.278 65.8951 213.224 64.3402 211.105C62.452 208.532 60.6558 202.577 59.4008 199.375L50.8173 177.551L28.4795 121.012C24.7581 111.597 20.2578 100.948 16.861 91.5297C16.089 89.935 14.7747 86.5856 14.273 84.9508L13.9943 84.5261C13.637 83.4297 12.9357 81.7635 12.5039 80.6469C8.84565 71.8088 3.47022 57.9652 0.035668 48.5917C-0.476917 47.1923 4.6834 40.8089 6.00223 39.0175L16.5998 24.6355C17.5794 23.3093 19.3229 21.1675 20.0341 19.8557C20.9587 18.1508 19.8332 16.084 22.3439 14.8048C25.8988 12.9936 27.022 16.8804 29.6845 17.7572C33.148 18.8977 36.5698 20.0321 40.0064 21.1801C46.8917 23.4479 53.7482 25.8018 60.5744 28.2411C64.0054 24.3106 67.4803 20.4187 70.9979 16.5659C72.4442 14.9563 74.2199 13.0795 75.4767 11.3999C76.3609 9.74212 75.708 7.75262 77.8191 6.89392C82.2099 5.1079 82.31 8.92285 84.9528 10.0884C93.9221 14.0446 102.788 18.3587 111.737 22.3865C117.638 16.939 123.824 11.6927 129.588 6.0807C130.864 4.83777 131.207 -0.533375 136.126 1.93002C137.617 2.67612 138.228 4.99418 139.544 5.71958C147.936 10.3447 156.101 15.5904 164.516 20.1469ZM153.152 22.0513C153.38 34.2606 154.954 48.6396 155.815 60.9137L160.704 131.024C160.768 132.743 160.87 134.46 161.011 136.175C161.136 138.239 161.275 140.303 161.43 142.365C161.535 143.684 161.693 145.212 161.757 146.516C161.981 148.595 162.141 150.917 162.251 153.013C163.114 169.534 164.68 186.041 165.583 202.55C166.785 203.717 167.653 204.584 168.749 205.849C166.789 208.78 161.071 214.839 160.227 217.676C159.71 219.418 164.8 263.926 165.53 270.453C172.631 270.498 179.733 270.483 186.833 270.407C187.142 256.76 186.732 242.959 186.93 229.298C186.983 225.644 187.059 221.347 186.752 217.749C182.44 212.138 174.986 205.748 170.765 200.106C170.255 195.063 169.981 189.303 169.598 184.181L166.754 144.697C166.479 142.581 166.347 138.963 166.204 136.727C166.005 134.709 165.863 133.05 165.809 131.027C165.586 128.936 165.516 126.58 165.407 124.46L160.773 58.5419C159.994 47.6889 158.954 35.6879 158.445 24.8516C159.096 24.2465 159.751 23.6455 160.41 23.0488C158.949 22.2149 156.955 21.1459 155.574 20.2388C154.775 20.8655 154.004 21.5004 153.152 22.0513ZM97.0301 210.799C96.2218 212.48 92.4918 219.791 92.6076 220.926C92.956 224.346 95.5405 231.518 96.6363 234.981L103.216 255.977C104.614 260.371 106.615 266.095 107.684 270.47L130.735 270.458C129.203 261.432 126.826 251.832 124.993 242.821L122.303 229.85C121.803 227.406 120.936 222.774 120.175 220.449C118.647 219.004 115.31 216.803 113.483 215.534C109.244 212.652 105.053 209.701 100.91 206.682C99.7579 203.284 98.7016 199.57 97.7243 196.101C97.5665 195.255 96.9231 193.17 96.6657 192.256C96.1972 190.65 95.6963 189.052 95.1634 187.466L94.8399 186.305C94.4808 183.902 92.0456 176.068 91.2396 173.235L83.3469 145.612L63.7024 76.9995L56.8579 53.0207C55.4575 48.1756 53.6243 42.3449 52.4547 37.5023C54.0195 35.4864 55.7113 33.5724 57.5197 31.7719C55.3252 31.2051 54.1508 30.8884 52.0754 30.0335C50.5556 31.8793 46.7255 35.1165 47.0468 37.1174C47.4649 39.7206 48.4695 42.8919 49.2251 45.4559C50.6362 50.1814 52.0232 54.914 53.3853 59.6537L72.3074 125.652L91.0067 190.977C92.542 196.199 94.6924 206.297 97.0301 210.799ZM314.939 86.2136C314.691 87.1744 314.149 89.0431 314.052 89.9558L313.708 90.6743C313.209 92.5876 312.674 94.4915 312.104 96.385C309.099 105.989 306.415 116.086 303.654 125.777L289.241 176.094L283.926 194.677C283.074 197.705 281.465 203.98 280.282 206.75C274.708 211.074 267.19 215.959 261.301 220.094C260.295 222.942 259.958 225.728 259.211 228.589C258.028 234.38 256.201 241.834 255.256 247.441L250.366 270.445C257.883 270.602 265.887 270.465 273.443 270.468C276.996 259.423 280.49 248.361 283.928 237.28C285.289 232.955 288.035 225.37 288.692 220.998C288.846 219.958 285.099 212.568 284.326 210.851C285.418 208.823 287.202 201.901 287.957 199.256L294.246 177.211L316.86 97.9701L318.471 92.1878L318.611 91.6273C319.376 89.414 320.28 85.753 320.959 83.359L321.205 82.4991C321.831 80.7077 322.429 78.4405 322.974 76.5895C323.876 72.784 325.262 68.619 326.349 64.8003C329.146 55.2408 331.867 45.6596 334.518 36.0573C333.243 34.6576 330.03 31.2796 329.073 29.9113C327.205 30.5496 325.513 31.1904 323.556 31.5079C325.373 33.4353 327.332 35.4492 328.913 37.5591L319.781 69.3353C318.238 74.7538 316.657 80.9436 314.939 86.2136ZM118.16 303.316L137.732 303.303C137.605 301.679 137.244 300.095 136.901 298.504C135.477 291.899 134.201 285.26 132.621 278.69C126.154 278.47 116.992 278.492 110.474 278.672C110.731 280.464 112.266 284.916 112.87 286.811L118.16 303.316ZM263.622 301.811C265.71 295.023 269.133 285.346 270.707 278.725C263.62 278.414 255.902 278.693 248.754 278.614C247.016 284.986 244.637 296.614 243.418 303.258C246.273 303.303 259.68 303.648 263.072 303.05C263.318 303.007 263.523 302.16 263.622 301.811ZM127.9 218.639C128.533 223.044 129.662 227.8 130.592 232.195L135.839 257.244C136.75 261.6 137.887 266.112 138.57 270.481C144.662 270.47 151.688 270.628 157.702 270.407C157.073 259.763 155.237 247.489 154.223 236.753C153.827 232.557 152.946 222.001 152.233 218.376C147.652 213.536 139.719 207.874 134.775 203.01C133.772 199.575 132.619 191.924 131.982 188.165L127.847 164.412L121.412 127.483C119.592 117.461 117.22 105.549 115.796 95.5754L114.98 90.6923L114.446 88.0275L114.279 87.368L114.081 86.5825C113.837 84.6011 113.36 82.2198 113.014 80.2235C111.348 68.0106 108.582 55.7005 106.698 43.5026C105.96 38.7299 104.857 33.9248 104.254 29.1454C105.528 27.9717 106.819 26.8155 108.125 25.6771C106.454 24.9489 104.576 24.1781 102.973 23.3544C101.828 24.428 99.6236 26.3724 98.6497 27.4748C100.011 36.6456 101.882 46.158 103.496 55.3138C105.326 66.1539 107.228 76.982 109.202 87.797L109.492 89.523C111.081 97.4064 112.366 106.3 113.778 114.315L124.622 175.969L127.974 195.34C128.482 198.319 128.852 201.646 129.658 204.537C130.129 206.225 132.296 207.574 133.56 208.82C132.257 211.097 128.754 216.661 127.9 218.639ZM186.881 299.107L186.892 292.841L186.907 290.617L186.894 284.09L186.851 278.715C181.833 278.419 171.439 278.528 166.31 278.685C166.967 286.831 168.02 295.129 168.793 303.306C174.372 303.316 181.368 303.519 186.831 303.296L186.881 299.107ZM222.755 278.637C222.063 282.207 221.64 287.437 221.285 291.182C220.92 295 220.383 299.548 220.168 303.331C222.512 303.329 234.448 303.942 235.71 302.89L235.951 301.816C237.499 294.293 239.432 286.281 240.674 278.791C236.46 278.358 227.47 278.622 222.755 278.637ZM147.51 311.622C147.718 313.595 148.246 316.084 148.738 318.027C149.974 322.902 150.673 328.15 151.975 332.974H164.168L162.123 311.66C157.833 311.361 151.909 311.541 147.51 311.622ZM160.915 303.253C161.162 301.352 159.046 280.76 158.6 278.695C152.616 278.429 146.452 278.761 140.483 278.619C140.893 282.288 142.041 286.892 142.869 290.573L145.643 303.265C150.243 303.362 156.322 303.473 160.915 303.253ZM275.255 40.2236L274.122 46.2773C273.268 52.3665 271.91 58.8723 270.828 64.9648L265.059 97.9458L261.296 119.526C260.364 125.183 259.262 132.571 258.045 138.061L257.987 139.29C257.772 140.277 257.574 141.269 257.394 142.263L256.53 147.372C253.013 164.93 250.538 182.837 247.165 200.434C246.98 201.398 246.616 202.551 245.967 203.293L245.688 203.613C241.837 207.972 232.895 213.901 228.871 218.485C228.132 223.693 227.703 229.229 227.159 234.5L223.477 270.46L242.473 270.458C243.968 263.338 245.556 256.35 246.973 249.209C248.724 242.218 250.295 233.782 251.84 226.655C252.425 223.918 253.003 221.291 253.442 218.523C251.65 215.407 249.463 212.041 247.576 208.922C248.736 207.709 251.055 206.189 251.582 204.642C252.562 201.765 252.714 198.179 253.287 195.186C253.936 191.808 254.485 188.464 255.05 185.082L261.588 147.776C262.11 143.601 263.131 138.649 263.891 134.452C265.621 125.728 267.081 116.352 268.614 107.567L279.177 46.7896C280.023 42.2347 280.773 37.5684 281.554 32.9944L281.967 30.7987L282.512 27.6824C281.848 26.4532 279.294 24.5374 278.113 23.3554C276.154 24.3504 274.981 24.8263 272.909 25.5882C274.414 26.7991 275.752 27.884 277.175 29.1859L275.255 40.2236ZM214.994 278.751C209.751 278.371 200.057 278.518 194.66 278.685C194.44 280.423 194.463 283.266 194.425 285.095C194.485 288.002 194.483 290.908 194.417 293.812L194.571 303.242C200.493 303.336 206.412 303.374 212.333 303.354C213.415 297.506 214.49 284.905 214.994 278.751ZM224.789 73.5386C225.486 58.3343 227.399 43.0176 228.015 27.7776C228.088 25.9401 228.225 24.0218 228.377 22.1871L225.671 20.1393C223.974 21.3015 222.519 22.0206 220.685 22.9667L222.914 24.5014C223.158 29.0514 221.865 40.574 221.554 45.6299C221.098 54.3178 220.51 62.9985 219.795 71.6692C219.593 74.323 219.433 79.3709 219.073 81.7308L218.817 85.814C218.663 87.5745 218.518 89.3357 218.384 91.0977L218.07 96.3072L214.743 144.65C213.973 154.872 212.893 165.895 212.425 176.079L212.176 180.078C212.001 183.376 211.877 186.797 211.535 190.074C211.414 191.783 211.117 194.742 211.17 196.363L210.988 197.292L210.993 198.646C210.235 201.68 207.076 204.243 204.955 206.542C201.524 210.261 197.901 213.81 194.544 217.606C194.212 223.11 194.437 231.03 194.437 236.725L194.49 270.437C201.278 270.617 208.794 270.46 215.642 270.465C215.833 269.541 215.992 268.611 216.116 267.678C216.735 262.76 221.648 219.678 221.017 217.536C220.315 215.148 214.414 208.371 212.526 205.931C213.223 204.987 214.73 203.469 215.597 202.552L223.431 92.7189L224.789 73.5386ZM236.972 332.943C238.315 332.976 239.744 332.956 241.092 332.956C243.073 332.956 245.326 333.009 247.282 332.933C249.337 332.926 251.534 333.007 253.599 333.047C255.96 326.191 258.205 318.559 260.351 311.599C254.947 311.302 247.163 311.546 241.634 311.586C239.853 318.554 238.839 325.965 236.972 332.943ZM233.777 311.629C229.482 311.472 223.778 311.465 219.463 311.622C218.645 313.935 217.421 329.269 216.925 332.969C218.898 332.994 228.058 333.288 229.279 332.728L229.528 331.963C230.648 327.382 233.148 316.117 233.777 311.629ZM186.846 311.619C182.4 311.465 175.932 311.424 171.499 311.634C170.483 311.693 170.469 311.528 169.767 312.017C169.941 318.293 171.352 326.381 171.735 333.002L185.077 332.989L186.588 332.941C187.127 332.333 186.957 313.737 186.846 311.619ZM194.422 332.987C196.806 333.009 207.539 333.265 209.148 332.774C209.326 332.371 209.359 332.391 209.42 331.968C210.248 325.218 210.988 318.458 211.642 311.688C206.909 311.356 199.822 311.528 195.007 311.609C194.863 311.764 194.718 311.921 194.574 312.078C194.313 317.639 194.425 327.982 194.422 332.987ZM137.866 332.992L143.796 332.954C144.308 331.874 140.071 313.907 139.565 311.594C134.073 311.31 126.352 311.556 120.755 311.601C122.993 318.643 125.109 325.991 127.52 332.936C130.968 332.992 134.417 333.009 137.866 332.992Z" fill="black" fill-opacity="0.25"/>
<path d="M123.359 371.135C129.907 370.887 137.283 371.041 143.91 371.044L180.175 371.049C205.816 371.046 232.68 370.631 258.23 371.112C258.243 371.307 258.251 371.505 258.256 371.7C258.456 380.143 258.238 388.651 258.309 397.094C258.395 407.257 258.638 416.239 255.833 426.161C252.484 438.017 246.788 447.019 238.424 455.898C232.32 462.025 225.083 466.905 217.117 470.264C200.566 477.275 181.904 477.387 165.272 470.576C148.59 463.737 135.312 450.547 128.363 433.912C126.144 428.632 124.62 423.085 123.831 417.412C123.449 414.671 123.216 411.909 123.135 409.142C122.974 404.535 122.739 372.638 123.359 371.135Z" fill="black" fill-opacity="0.25"/>
</svg>
