<svg width="424" height="417" viewBox="-7 -9 424 417" fill="none" xmlns="http://www.w3.org/2000/svg">
<path d="M192.542 0.379197C192.659 0.369582 192.777 0.359969 192.894 0.350354C248.964 -2.90739 303.967 16.6603 345.381 54.599C383.592 89.7841 406.485 138.549 409.143 190.424C411.693 242.449 393.441 293.352 358.412 331.902C321.803 372.508 270.578 396.93 215.981 399.808C163.878 401.94 113.33 386.328 73.0259 352.865C31.4581 318.895 5.39769 269.556 0.772554 216.073C-0.798804 198.571 0.109636 187.026 2.74742 169.917C8.4916 132.659 23.1013 101.328 47.1992 72.4282C75.6144 38.8408 114.138 15.3527 157.009 5.47532C169.556 2.61055 179.819 1.52612 192.542 0.379197ZM211.507 151.45C227.759 149.475 239.329 134.694 237.343 118.444C235.357 102.193 220.568 90.6328 204.319 92.6295C188.085 94.6241 176.539 109.396 178.522 125.631C180.506 141.866 195.27 153.423 211.507 151.45ZM287.562 257.477C324.054 249.328 317.256 193.383 279.2 196.147C252.933 201.019 246.33 238.689 268.33 253.195C273.75 256.769 280.564 258.867 287.063 257.588C287.23 257.554 287.396 257.518 287.562 257.477ZM140.724 257.599C155.298 255.253 165.21 241.536 162.862 226.962C160.514 212.388 146.794 202.478 132.221 204.829C117.651 207.179 107.744 220.894 110.092 235.465C112.439 250.035 126.153 259.944 140.724 257.599ZM32.9073 207.656C50.049 196.623 48.3285 145.587 30.7707 147.97C13.6082 159.409 15.3842 209.84 32.9073 207.656ZM217.72 362.987C257.703 358.241 237.457 334.896 207.142 337.304C199.977 337.991 190.112 339.882 185.027 345.423C181.332 349.448 184.812 354.457 188.401 357.019C196.443 362.761 208.247 363.596 217.72 362.987ZM354.308 297.002C340.027 303.658 325.697 318.787 318.914 333.467C317.342 336.868 317.518 339.989 321.883 340.517C334.021 336.871 350.003 319.105 355.944 308.134C357.802 304.704 362.145 296.15 354.308 297.002ZM339.51 76.673C346.875 73.9831 339.573 66.2657 336.522 62.8928C328.201 53.6952 311.841 41.7509 299.022 41.3637C295.667 42.4401 294.581 44.6156 296.358 47.6621C303.612 60.0967 325.284 76.0266 339.51 76.673ZM95.2192 44.8695C81.5439 49.0374 70.6227 61.0022 63.6208 73.0522C59.9235 79.4153 56.9509 90.2338 68.8349 87.6094C81.266 84.1023 93.5555 71.0546 99.8954 60.2086C103.912 53.336 107.795 43.503 95.2192 44.8695ZM204.074 15.2696C167.99 16.9305 171.468 36.3546 206.468 36.0251C244.184 34.4098 235.108 14.7033 204.074 15.2696ZM57.5772 301.361C40.9961 306.144 74.4065 342.406 93.3588 343.126C109.801 338.589 77.5631 301.582 57.5772 301.361ZM378.104 134.702C364.554 142.901 370.062 192.862 384.355 196.036C384.59 196.088 384.826 196.137 385.062 196.182C398.469 189.478 393.449 138.665 378.104 134.702Z" fill="black" fill-opacity="0.25"/>
</svg>
