<svg width="973" height="575" viewBox="0 0 973 575" fill="none" xmlns="http://www.w3.org/2000/svg">
<path d="M825.123 114.044L698.923 40.1905C677.218 27.4565 651.738 11.6085 629.913 0C624.698 2.2685 610.193 11.1755 604.503 14.48L553.963 43.9215L420.568 120.62C413.685 124.494 406.839 128.434 400.031 132.439C396.74 134.395 382.95 143.011 380.446 143.672L370.045 150.04C357.093 156.589 343.431 165.154 330.679 172.486L244.202 222.448L130.566 288.049L67.1444 324.59C55.9454 331.035 33.5281 343.965 33.5281 343.965C33.5281 343.965 2.53 361.439 0 363.924C32.1553 382.379 93.1318 411.115 125.029 430.004L277.484 518.974L336.826 553.734C347.396 559.99 362.363 569.444 373.095 574.679C377.888 571.524 383.597 568.634 388.629 565.709L425.98 544.115L542.258 476.96L577.258 456.809C584.753 452.534 689.318 392.609 696.463 387.77C705.243 383.329 714.498 377.555 723.048 372.639C739.778 363.169 756.438 353.579 773.033 343.869L897.628 271.98C922.218 257.845 946.903 242.783 971.708 229.163C971.708 224.395 973.008 205.775 973.008 200.448C959.438 191.222 939.163 180.502 924.523 171.953L825.123 114.044Z" fill="#CBB083"/>
<path d="M404.306 192.197L405.621 191.772C408.858 195.818 410.967 194.361 413.265 197.694L414.086 197.093C424.318 203.729 435.717 209.797 446.194 216.095C450.569 218.724 457.967 222.36 461.798 225.217L462.772 225.853C470.37 229.763 479.078 235.155 486.552 239.555L515.865 256.49L594.095 301.81C597.6 303.855 623.015 318.01 624.95 320.305L625.49 320.26L626.81 319.02L627.835 318.4C629.47 317 630.085 317.015 632.255 316.46L632.75 316.67L632.71 321.265L632.695 326.27L632.465 326.305C629.285 329.67 595.51 348.115 589.3 351.695L445.072 434.94L404.118 458.605C398.821 461.645 385.358 468.95 381.061 472.465C363.93 461.66 343.8 450.585 326.068 440.185L216.42 376.11L173.736 351.205C167.071 347.32 157.317 342.105 151.156 337.865C161.617 332.725 173.203 325.61 183.454 319.69L234.111 290.44L350.454 223.301C368.345 212.83 386.296 202.462 404.306 192.197Z" fill="#38282C"/>
<path d="M414.086 197.093C424.318 203.729 435.717 209.797 446.194 216.095C450.569 218.724 457.967 222.36 461.799 225.217L462.772 225.853C470.37 229.763 479.079 235.155 486.553 239.555L515.865 256.49L594.095 301.81C597.6 303.855 623.015 318.01 624.95 320.305C599.68 333.555 573.135 351.485 547.995 364.53C542.45 362.325 523.735 350.965 517.885 347.57L456.846 312.19L375.311 265C364.717 258.845 346.006 249.09 336.436 242.18C342.706 237.815 351.76 233.29 358.512 229.217C376.257 218.509 395.672 208.484 413.265 197.694L414.086 197.093Z" fill="#38282C"/>
<path d="M632.255 316.46L632.75 316.67L632.71 321.265L632.695 326.27L632.465 326.305C632.41 325.655 632.245 324.78 632.14 324.115C630.365 322.295 628 320.775 625.49 320.26L626.81 319.02L627.835 318.4C629.47 317 630.085 317.015 632.255 316.46Z" fill="#E0A63A"/>
<path d="M426.822 307.265C429.607 307.22 438.841 313.145 441.812 314.865L465.505 328.6L537.93 370.62C518.395 381.325 498.107 393.505 478.758 404.71L383.564 459.755L382.207 460.545C379.383 460.535 285.032 404.04 273.459 397.71C278.434 393.835 285.737 389.94 291.363 386.64L322.959 368.185L426.822 307.265Z" fill="#F7EFE0"/>
<path d="M325.509 248.29C329.94 249.14 409.451 295.96 418.61 301.7C406.525 307.65 387.513 319.71 375.014 326.845L264.504 391.095C264.314 391.155 264.13 391.245 263.933 391.27C261.748 391.575 181.325 343.395 171.375 337.715C176.103 334.11 184.75 329.44 190.172 326.32L221.828 308.125L325.509 248.29Z" fill="#F7EFE0"/>
<path d="M650.71 49.5541L803.07 138.11C827.555 152.333 852.24 166.414 876.68 180.752C878.405 181.765 878.755 181.799 879.555 183.295C878.685 184.965 876.895 185.857 875.125 186.88C863.27 193.732 851.28 200.404 839.43 207.266L745.245 261.605C711.86 280.775 676.355 302.435 642.745 320.82C642.815 324.41 643.45 330.355 641.545 333.08C637.41 335.97 632.895 333.76 632.755 328.6L632.695 326.27L632.71 321.265L632.75 316.67L632.255 316.46C630.085 317.015 629.47 317 627.835 318.4L626.81 319.02L625.49 320.26L624.95 320.305C623.015 318.01 597.6 303.855 594.095 301.81L515.865 256.49L486.553 239.555C479.079 235.155 470.37 229.763 462.772 225.853L461.799 225.217C457.967 222.36 450.569 218.724 446.194 216.095C435.717 209.797 424.318 203.729 414.086 197.093L413.265 197.694C410.967 194.361 408.858 195.818 405.621 191.772L406.964 190.552C408.575 189.289 409.367 189.82 410.775 188.365C412.673 185.78 411.391 188.92 413.757 186.38L413.828 185.903L414.9 186.333C416.228 185.812 416.857 185.04 417.89 184.056C419.092 183.649 419.055 183.569 420.031 182.718L422.2 181.732L423.948 180.898C424.601 180.303 425.501 180.183 426.434 179.904L426.601 178.685C427.898 178.103 428.303 178.059 429.668 177.747C430.595 176.73 430.062 177.1 431.384 176.777C433.193 175.823 433.765 175.521 435.688 174.895L436.65 173.292C434.733 170.623 403.607 154.413 397.955 150.121C397.78 147.295 397.453 143.134 398.356 140.515L445.737 167.776C452.312 165.132 470.423 154.073 477.619 149.901L538.185 114.895L612.725 71.8771C622.115 66.4656 642.745 55.3346 650.71 49.5541Z" fill="#38282C"/>
<path d="M395.974 149.074C397.311 148.614 438.985 174.273 438.985 174.273C455.515 184.246 489.559 203.323 506.279 213.052C535.72 230.183 565.255 247.255 594.87 264.09C596.74 265.155 599.335 266.715 600.985 268.085C604.57 269.695 606.015 270.485 609.325 272.595C615.495 275.87 626.505 282.29 632.545 286.125L632.49 287.93C633.225 291.39 632.56 308.26 632.855 313.385L632.75 316.67L632.255 316.46C630.085 317.015 629.47 317 627.835 318.4L626.81 319.02L625.49 320.26L624.95 320.305C623.015 318.01 597.6 303.855 594.095 301.81L515.865 256.49L486.552 239.555C479.078 235.155 470.37 229.763 462.771 225.853L461.798 225.217C457.967 222.36 450.569 218.724 446.194 216.095C435.716 209.797 424.318 203.729 414.086 197.093L413.265 197.694C410.967 194.361 396.744 187.086 393.506 183.04C395.117 181.777 394.856 177.33 396.264 175.875C398.162 173.29 393.607 172.904 395.974 170.364C394.941 171.348 397.302 169.843 395.974 170.364C394.998 171.215 397.176 169.956 395.974 170.364C395.04 170.643 396.627 169.769 395.974 170.364C394.608 170.676 397.271 169.782 395.974 170.364C396.9 169.347 394.942 163.138 396.264 162.816C398.073 161.862 394.05 149.7 395.974 149.074Z" fill="#E0A63A"/>
<path d="M424.013 178.512C430.529 181.827 431.015 181.129 430.182 188.464C428.268 187.099 425.841 185.893 423.747 184.762L424.013 178.512Z" fill="#38282C"/>
<path d="M407.292 185.843C409.293 186.71 412.015 188.398 413.971 189.529L413.711 196.068C407.83 192.434 406.595 193.081 407.292 185.843Z" fill="#38282C"/>
<path d="M416.736 195.489C415.675 194.7 416.037 195.032 415.31 193.856C415.168 192.022 414.865 192.732 415.815 191.508L417.11 191.423C418.776 192.328 418.916 192.808 419.909 194.396C418.754 194.84 417.948 195.202 416.736 195.489Z" fill="#E0A63A"/>
<path d="M462.579 218.293L464.242 218.563C466.842 219.823 468.273 220.676 470.659 222.183C470.449 224.38 470.268 226.057 470.307 228.293C468.54 227.404 465.378 225.686 463.65 225.029L462.771 225.853L461.798 225.217L461.746 223.77C462.171 222.316 462.381 219.867 462.579 218.293Z" fill="#38282C"/>
<path d="M462.579 218.293L464.242 218.563C463.617 220.672 463.711 222.808 463.65 225.029L462.771 225.853L461.798 225.217L461.746 223.77C462.171 222.316 462.381 219.867 462.579 218.293Z" fill="#E0A63A"/>
<path d="M455.776 188.76C461.089 189.143 462.756 192.699 462.158 197.454C460.406 198.243 457.511 195.902 455.868 194.875L455.776 188.76Z" fill="#38282C"/>
<path d="M447.916 184.006C450.122 185.164 451.098 185.679 453.45 186.447C454.118 187.706 454.289 187.78 454.422 189.165C454.121 191.655 454.674 191.646 453.266 192.921C451.434 192.961 449.12 191.135 447.441 190.068C447.643 188.076 447.768 186.008 447.916 184.006Z" fill="#38282C"/>
<path d="M439.892 179.548C442.098 180.706 443.074 181.221 445.426 181.989C446.094 183.248 446.265 183.322 446.398 184.707C446.097 187.197 446.65 187.188 445.242 188.463C443.41 188.503 441.096 186.677 439.417 185.61C439.619 183.618 439.744 181.55 439.892 179.548Z" fill="#38282C"/>
<path d="M431.979 174.803C434.185 175.961 435.161 176.476 437.512 177.244C438.18 178.502 438.351 178.576 438.485 179.962C438.184 182.451 438.737 182.443 437.328 183.718C435.496 183.758 433.183 181.932 431.503 180.864C431.706 178.873 431.83 176.805 431.979 174.803Z" fill="#38282C"/>
<path d="M456 213.326C458.436 215.523 460.734 216.018 462.579 218.293C462.381 219.867 462.171 222.316 461.746 223.77C455.745 220.01 455.52 220.472 456 213.326Z" fill="#38282C"/>
<path d="M415.286 190.376C417.287 191.244 420.009 192.931 421.965 194.062L421.705 200.601C415.824 196.967 414.589 197.615 415.286 190.376Z" fill="#38282C"/>
<path d="M455.011 183.555L455.914 183.95C455.631 185.886 455.711 185.975 457.314 187.359L457.1 188.031C456.79 188.192 456.008 188.561 455.776 188.76L454.422 189.165C454.288 187.78 454.117 187.706 453.449 186.447C453.519 185.051 453.998 184.842 455.011 183.555Z" fill="#E0A63A"/>
<path d="M445.723 214.631C442.997 212.996 436.759 209.109 439.753 205.145L441.064 204.975C443.205 205.804 443.988 206.587 445.838 208.017L446.525 209.08L447.857 209.359C447.803 211.469 447.696 213.772 447.754 215.864L446.455 215.672L445.723 214.631Z" fill="#38282C"/>
<path d="M445.838 208.017L446.525 209.08L447.856 209.359C447.803 211.469 447.695 213.772 447.754 215.864L446.454 215.672L445.722 214.631C445.888 212.355 445.85 210.29 445.838 208.017Z" fill="#E0A63A"/>
<path d="M521.015 242.885C523.055 243.775 525.375 244.685 526.85 246.29C527.905 247.14 527.845 247.235 529.04 247.775L528.675 253.345C527.635 252.66 527.86 252.845 526.615 252.47C524.68 251.545 521.94 249.82 520.02 248.695L521.015 242.885Z" fill="#38282C"/>
<path d="M526.85 246.29C527.905 247.14 527.845 247.235 529.04 247.775L528.675 253.345C527.635 252.66 527.86 252.845 526.615 252.47L526.85 246.29Z" fill="#E0A63A"/>
<path d="M503.99 232.95C510.64 236.39 511.305 235.695 510.65 243.205C508.522 241.97 506.054 240.79 503.84 239.675C503.839 237.49 503.939 235.145 503.99 232.95Z" fill="#38282C"/>
<path d="M487.854 232.35C494.329 234.81 494.875 235.595 494.754 242.19C492.143 241.695 490.155 240.18 487.902 238.765C487.789 236.68 487.847 234.45 487.854 232.35Z" fill="#38282C"/>
<path d="M593.04 293.215C595.57 293.835 597.615 295.24 599.845 296.58C599.92 298.495 599.77 300.97 599.705 302.925C593.485 301.34 592.825 298.865 593.04 293.215Z" fill="#38282C"/>
<path d="M504.142 216.471C510.23 218.743 511.685 219.915 510.535 226.177C507.798 225.235 506.347 224.163 503.949 222.615C503.893 220.49 504.025 218.585 504.142 216.471Z" fill="#38282C"/>
<path d="M504.158 241.725C506.954 242.835 508.349 243.885 510.81 245.535L510.7 251.695C504.108 248.77 503.537 248.775 504.158 241.725Z" fill="#38282C"/>
<path d="M552.785 269.925C554.79 270.4 557.74 272.25 559.65 273.315L559.165 279.505L558.805 279.56C553.19 277.6 552.53 275.645 552.785 269.925Z" fill="#38282C"/>
<path d="M553 253.285C554.755 253.715 557.555 255.275 559.27 256.145C559.74 259.07 559.745 259.95 559.645 262.925C558.215 262.725 554.36 260.175 552.895 259.295L553 253.285Z" fill="#38282C"/>
<path d="M496.084 228.469C498.576 229.498 500.384 230.847 502.621 232.335L502.723 238.495C499.839 237.51 498.38 236.32 495.885 234.61C495.875 232.485 495.967 230.591 496.084 228.469Z" fill="#38282C"/>
<path d="M487.913 223.955C489.569 224.569 492.595 226.369 494.252 227.29C494.677 229.433 494.717 231.55 494.839 233.735C491.933 232.89 490.348 231.7 487.814 230.103L487.913 223.955Z" fill="#38282C"/>
<path d="M504.313 224.775C510.575 227.721 511.265 227.917 510.61 234.705C508.319 233.745 505.958 232 503.854 230.595C503.839 228.165 503.944 227.184 504.313 224.775Z" fill="#38282C"/>
<path d="M568.93 279.265C571.21 280.075 573.495 281.465 575.635 282.65C575.74 284.81 575.71 287.24 575.74 289.425C573.46 288.155 571.205 286.845 568.975 285.49L568.93 279.265Z" fill="#38282C"/>
<path d="M447.879 200.595C453.845 203.489 454.864 203.733 453.945 210.51C447.716 207.686 446.828 207.352 447.879 200.595Z" fill="#38282C"/>
<path d="M439.533 196.068C441.047 196.359 444.529 198.546 446.051 199.417L446.177 205.587C444.387 205.489 441.173 203.465 439.439 202.5C439.377 200.606 439.501 198.021 439.533 196.068Z" fill="#38282C"/>
<path d="M592.91 284.95C594.775 285.35 597.95 287.21 599.77 288.17C599.895 290.22 599.8 292.805 599.78 294.9L593.03 290.845C593.295 288.77 593.065 287.035 592.91 284.95Z" fill="#38282C"/>
<path d="M569.545 254.135C571.515 255.11 573.82 256.52 575.765 257.635C575.845 260.07 575.7 261.55 575.495 263.945C574.495 263.425 573.495 262.895 572.5 262.365C567.9 259.96 568.63 258.75 569.545 254.135Z" fill="#38282C"/>
<path d="M487.969 215.446C490.451 216.453 492.347 217.842 494.585 219.308C494.659 220.9 494.434 223.123 494.326 224.761C492.677 224.917 489.529 223.015 487.868 222.172L487.969 215.446Z" fill="#38282C"/>
<path d="M552.79 244.86C554.595 245.47 557.785 247.12 559.615 248L559.63 254.305C557.98 254.065 554.45 251.835 552.81 250.905L552.79 244.86Z" fill="#38282C"/>
<path d="M577.14 268.66L577.295 267.785C579.2 267.39 581.475 269 583.27 270.06C583.98 271.275 583.715 275.62 583.685 277.19C578.705 274.32 576.895 274.825 577.14 268.66Z" fill="#38282C"/>
<path d="M577.14 268.66L577.295 267.785C579.2 267.39 581.475 269 583.27 270.06C581.72 271.515 580.615 272.63 578.685 272.76C577.21 271.135 577.635 271.205 577.14 268.66Z" fill="#38282C"/>
<path d="M568.955 271C570.54 271.495 574.02 273.265 575.665 274.05C575.745 276.11 575.66 278.54 575.64 280.635C569.67 277.715 568.52 278.005 568.955 271Z" fill="#38282C"/>
<path d="M576.99 283.995C578.975 284.435 581.66 286.12 583.53 287.16C583.685 289.225 583.635 291.105 583.615 293.165C581.79 292.955 578.79 291.26 577.065 290.375C576.935 288.635 577.005 285.825 576.99 283.995Z" fill="#38282C"/>
<path d="M593.345 276.68C595.81 277.205 597.53 278.45 599.705 279.735C599.845 282.165 600.235 284.05 599.115 286C597.145 284.815 595.035 283.75 592.995 282.68C593.16 280.42 593.01 279.03 593.345 276.68Z" fill="#38282C"/>
<path d="M423.338 194.957C425.339 195.824 428.061 197.512 430.017 198.643L429.757 205.182C423.876 201.548 422.641 202.195 423.338 194.957Z" fill="#38282C"/>
<path d="M544.765 256.87C551.515 259.515 551.695 259.72 551.145 266.37C544.535 264.115 544.525 263.22 544.765 256.87Z" fill="#38282C"/>
<path d="M553.04 261.505C559.12 264.575 560.055 264.205 559.69 271.195C558.19 270.675 554.47 268.67 552.88 267.87C552.855 265.92 552.99 263.5 553.04 261.505Z" fill="#38282C"/>
<path d="M488.202 207.154C490.339 208.359 492.502 209.516 494.692 210.623C494.544 212.817 494.619 214.568 494.692 216.741C492.352 216.491 489.842 214.514 487.897 213.157C487.808 210.77 487.938 209.542 488.202 207.154Z" fill="#38282C"/>
<path d="M569.22 262.38C571.215 263.585 573.645 264.785 575.735 265.885L575.685 272.42C573.86 271.265 570.945 269.745 568.985 268.655C568.89 266.02 568.84 264.965 569.22 262.38Z" fill="#38282C"/>
<path d="M577.705 275.895C579.37 276.55 581.9 277.83 583.595 278.62C583.725 281.52 583.795 282.66 583.39 285.625L581.59 284.545C576.8 281.72 576.455 281.53 577.705 275.895Z" fill="#38282C"/>
<path d="M585.555 288.77C587.35 289.78 589.755 290.755 591.675 291.6C591.96 294.065 591.83 296.055 591.755 298.52C585.83 295.96 584.725 295.215 585.555 288.77Z" fill="#38282C"/>
<path d="M496.154 237.11C502.346 239.15 502.872 241.32 502.802 247.07C496.873 244.325 495.548 244.12 496.154 237.11Z" fill="#38282C"/>
<path d="M536.775 251.905C538.995 252.675 541.175 254.48 543.135 255.89C543.36 257.86 543.255 259.705 543.215 261.69C540.995 261.01 538.815 259.705 536.745 258.595L536.775 251.905Z" fill="#38282C"/>
<path d="M585.39 280.4C587.2 281.12 589.935 282.59 591.755 283.495C591.82 285.76 591.77 288.205 591.77 290.485C585.84 286.375 584.825 288.575 585.39 280.4Z" fill="#38282C"/>
<path d="M617.78 307.295C620.095 308.065 622 309.47 624.075 310.795C624.15 312.585 623.93 315.23 623.83 317.085C621.16 315.745 620.025 315.06 617.565 313.425C617.51 311.1 617.585 309.615 617.78 307.295Z" fill="#38282C"/>
<path d="M625.234 311.2C627.549 311.97 629.454 313.375 631.529 314.7C631.604 316.49 631.384 319.135 631.284 320.99C628.614 319.65 627.479 318.965 625.019 317.33C624.964 315.005 625.039 313.52 625.234 311.2Z" fill="#38282C"/>
<path d="M544.89 265.075C550.785 268.18 551.82 267.8 551.05 274.74C547.86 273.435 547.145 272.945 544.34 271.04L544.89 265.075Z" fill="#38282C"/>
<path d="M544.895 239.995C546.895 241.08 549.125 242.045 551.205 243C551.285 245.255 551.245 247.655 551.25 249.92C545.175 246.57 544.295 247.325 544.895 239.995Z" fill="#38282C"/>
<path d="M447.856 209.359C453.963 211.12 453.769 212.13 454.241 217.944L453.711 218.628C451.173 217.906 449.483 216.34 447.754 215.864C447.695 213.772 447.803 211.469 447.856 209.359Z" fill="#38282C"/>
<path d="M496.185 211.947C497.696 212.418 501.076 214.409 502.617 215.257C502.69 217.473 502.614 219.275 502.507 221.492C499.684 220.302 498.583 219.586 496.063 217.984C495.92 215.869 496.07 214.054 496.185 211.947Z" fill="#38282C"/>
<path d="M480.02 210.96C481.994 211.631 484.742 213.527 486.597 214.692C486.372 216.445 486.601 218.885 486.699 220.702C484.626 220.171 481.912 218.507 479.953 217.44L480.02 210.96Z" fill="#38282C"/>
<path d="M601.8 281.06C607.775 284.405 608.62 283.665 607.685 290.865C601.22 287.785 601.12 288.165 601.8 281.06Z" fill="#38282C"/>
<path d="M431.831 191.25C432.821 191.674 436.869 194.124 438.199 194.869L437.746 201.116C432.035 198.275 430.504 198.186 431.831 191.25Z" fill="#38282C"/>
<path d="M423.695 186.839C424.685 187.263 428.733 189.713 430.063 190.458L429.61 196.705C423.899 193.864 422.368 193.775 423.695 186.839Z" fill="#38282C"/>
<path d="M512.315 229.903C515.195 230.897 516.415 231.555 519.035 232.955L518.63 239.36C516.405 238.51 514.485 237.27 512.43 236.06L512.315 229.903Z" fill="#38282C"/>
<path d="M464.033 201.618C466.681 202.691 468.254 203.935 470.584 205.551C470.601 207.197 470.306 209.617 470.153 211.308C467.881 210.289 466.166 209.193 464.048 207.914C463.795 205.216 463.805 204.322 464.033 201.618Z" fill="#38282C"/>
<path d="M593.59 268.22C600.185 270.36 600.01 271.845 599.85 277.975C594.01 274.345 592.58 275.97 593.59 268.22Z" fill="#38282C"/>
<path d="M480.229 219.346C485.813 221.632 487.089 222.639 486.3 228.613C480.111 227.634 479.334 224.889 480.229 219.346Z" fill="#38282C"/>
<path d="M472.009 206.131L478.223 209.51C478.412 211.941 478.333 213.789 478.252 216.201C475.864 215.137 474.076 213.933 471.87 212.556C471.828 210.511 471.949 208.196 472.009 206.131Z" fill="#38282C"/>
<path d="M561.13 274.93C564.005 275.74 565.105 276.585 567.57 278.16C567.375 280.23 567.345 282.33 567.275 284.41C565.475 283.345 562.815 282.095 560.89 281.115C560.845 278.665 560.87 277.36 561.13 274.93Z" fill="#38282C"/>
<path d="M471.966 214.664C478.372 217.155 478.656 218.254 478.332 224.621C476.234 223.358 473.936 222.207 471.761 221.063L471.966 214.664Z" fill="#38282C"/>
<path d="M601.72 272.885C603.2 273.415 606.53 275.16 608.09 275.92C608.105 278 607.9 280.365 607.765 282.465C602.215 279.61 600.64 279.685 601.72 272.885Z" fill="#38282C"/>
<path d="M585.03 263.445C591.4 264.875 591.925 267.3 591.735 273.085C589.42 272.165 587.42 270.845 585.285 269.56C585.275 267.515 585.14 265.49 585.03 263.445Z" fill="#38282C"/>
<path d="M447.811 192.363C449.3 193.025 452.122 194.727 453.65 195.583C454.338 198.59 454.461 199.18 454.354 202.243C448.377 199.825 446.932 198.665 447.811 192.363Z" fill="#38282C"/>
<path d="M479.836 227.894C485.657 228.963 486.919 231.31 486.157 236.715C484.459 237.165 481.753 235.245 480.136 234.33L479.836 227.894Z" fill="#38282C"/>
<path d="M585.325 271.84C587.55 272.725 589.605 273.83 591.735 274.92L591.775 281.665C585.49 278.405 584.74 279.045 585.325 271.84Z" fill="#38282C"/>
<path d="M520.295 234.23C522.78 235.33 525.27 236.52 527.145 238.48C526.83 240.88 526.73 241.725 526.86 244.125L520.295 240.68V234.23Z" fill="#38282C"/>
<path d="M577.395 258.96C579.41 259.67 581.735 260.82 583.71 261.73C583.805 264.4 583.775 265.645 583.5 268.3C581.865 267.62 578.88 265.97 577.2 265.105L577.395 258.96Z" fill="#38282C"/>
<path d="M464.001 210.049C465.943 210.94 468.705 212.544 470.656 213.594L470.156 219.443C468.591 219.069 465.462 217.305 463.895 216.492C463.801 214.027 463.832 212.511 464.001 210.049Z" fill="#38282C"/>
<path d="M537.115 235.2C539.01 236.46 541.42 237.81 543.405 238.995C543.36 241.055 543.185 242.945 543.01 244.985L536.475 241.645C536.54 239.7 536.895 237.18 537.115 235.2Z" fill="#38282C"/>
<path d="M464.176 193.429C466.602 194.399 468.358 195.515 470.601 196.826C470.603 198.418 470.308 201.06 470.177 202.729C468.274 201.895 465.927 200.476 464.065 199.432C463.832 196.977 463.568 195.862 464.176 193.429Z" fill="#38282C"/>
<path d="M431.861 200.398C433.976 200.906 435.911 201.978 437.887 202.929L437.792 210.324C432.903 206.742 430.551 207.302 431.861 200.398Z" fill="#38282C"/>
<path d="M536.715 260.825C542.855 263.065 543.55 263.635 543.225 269.98C537.045 268.09 536.245 267.165 536.715 260.825Z" fill="#38282C"/>
<path d="M520.66 251.28C522.15 251.85 525.155 253.69 526.66 254.555C526.815 257.205 527.045 258.52 526.42 261.125L519.88 256.91L520.66 251.28Z" fill="#38282C"/>
<path d="M609.34 302.595L615.9 305.945L615.83 312.54C609.675 309.23 609.03 309.595 609.34 302.595Z" fill="#38282C"/>
<path d="M528.68 255.67C535.055 258.955 535.21 258.66 534.9 265.725L528.545 262.225C528.57 260.04 528.615 257.855 528.68 255.67Z" fill="#38282C"/>
<path d="M609.64 294.21L615.935 297.34L615.8 304.2C613.53 302.565 611.87 301.75 609.415 300.455C609.405 298.27 609.515 296.38 609.64 294.21Z" fill="#38282C"/>
<path d="M455.923 196.885C461.9 198.625 462.439 201.255 462.205 206.653C459.889 205.853 458.029 204.539 455.94 203.243L455.923 196.885Z" fill="#38282C"/>
<path d="M471.935 197.977C474.232 198.899 476.277 200.208 478.416 201.464L478.654 207.194C476.226 207.141 474.036 205.27 471.986 203.87L471.935 197.977Z" fill="#38282C"/>
<path d="M544.825 248.495C546.515 249.165 549.5 250.94 551.205 251.88L551.235 258.2C544.915 255.185 544.585 255.49 544.825 248.495Z" fill="#38282C"/>
<path d="M480.062 202.477C482.314 203.312 484.557 204.98 486.598 206.331C486.602 207.882 486.387 210.234 486.293 211.848C479.882 209.884 479.615 208.339 480.062 202.477Z" fill="#38282C"/>
<path d="M439.801 187.658C446.317 190.973 446.803 190.275 445.971 197.61C444.057 196.245 441.629 195.039 439.536 193.908L439.801 187.658Z" fill="#38282C"/>
<path d="M431.686 182.982C438.202 186.296 438.688 185.598 437.855 192.933C435.941 191.569 433.514 190.362 431.42 189.232L431.686 182.982Z" fill="#38282C"/>
<path d="M601.215 297.855C603.065 298.545 605.87 300.2 607.7 301.195C607.845 303 607.735 305.5 607.705 307.365C601.645 305.345 601.17 303.76 601.215 297.855Z" fill="#38282C"/>
<path d="M512.61 221.237L519.1 224.664C518.98 226.703 518.875 228.743 518.79 230.784C517.275 230.236 514.1 228.319 512.56 227.449C512.355 224.8 512.23 223.838 512.61 221.237Z" fill="#38282C"/>
<path d="M601.845 289.54C604.39 290.745 605.82 291.845 608.105 293.44C608.055 295.34 607.83 297.325 607.66 299.225C606.135 298.54 603.095 296.705 601.525 295.82C601.415 293.59 601.645 291.75 601.845 289.54Z" fill="#38282C"/>
<path d="M496.19 220.557C498.353 221.218 500.574 222.632 502.579 223.765C502.549 225.706 502.618 227.696 502.656 229.641C496.286 227.868 495.538 226.681 496.19 220.557Z" fill="#38282C"/>
<path d="M520.625 225.922C523.29 227.245 524.43 227.786 526.885 229.606C526.87 231.435 526.79 233.635 526.91 235.425C524.47 234.7 522.785 233.655 520.555 232.45C520.42 230.176 520.535 228.188 520.625 225.922Z" fill="#38282C"/>
<path d="M609.93 277.51L615.835 280.475L615.885 287.165C613.705 286.095 611.42 284.775 609.28 283.6L609.93 277.51Z" fill="#38282C"/>
<path d="M617.815 281.975C623.69 284.88 624.365 284.72 624.175 291.51C618.065 290.2 617.395 287.38 617.815 281.975Z" fill="#38282C"/>
<path d="M625.269 285.88C631.144 288.785 631.819 288.625 631.629 295.415C625.519 294.105 624.849 291.285 625.269 285.88Z" fill="#38282C"/>
<path d="M617.79 290.51C623.875 292.33 624.53 294.21 624.11 299.825C621.65 299.33 620.08 298.01 617.955 296.61C617.81 295.005 617.83 292.215 617.79 290.51Z" fill="#38282C"/>
<path d="M625.244 294.415C631.329 296.235 631.984 298.115 631.564 303.73C629.104 303.235 627.534 301.915 625.409 300.515C625.264 298.91 625.284 296.12 625.244 294.415Z" fill="#38282C"/>
<path d="M561.085 266.29C567.655 268.71 567.77 269.49 567.335 275.935C565.135 274.53 563.445 273.96 561.045 273.005L561.085 266.29Z" fill="#38282C"/>
<path d="M609.38 285.88C615.865 288.43 616.4 288.28 615.705 295.315C614.24 294.715 611.22 292.85 609.715 291.985L609.38 285.88Z" fill="#38282C"/>
<path d="M455.971 205.488C462.217 208.559 462.763 207.89 461.972 215.081C459.522 214.054 457.974 212.96 455.754 211.542L455.971 205.488Z" fill="#38282C"/>
<path d="M512.645 246.75L518.78 249.715L518.84 256.47C516.72 255.15 514.53 253.95 512.355 252.725L512.645 246.75Z" fill="#38282C"/>
<path d="M471.892 222.983C477.751 225.318 477.927 226.295 478.215 232.115C472.446 232.64 471.665 227.256 471.892 222.983Z" fill="#38282C"/>
<path d="M560.895 257.96C562.77 258.435 565.765 260.15 567.59 261.105L567.185 267.315C565.15 266.27 563.23 265.185 561.245 264.065L560.895 257.96Z" fill="#38282C"/>
<path d="M617.795 299.145C620.21 300.025 621.55 300.98 623.71 302.32C623.885 304.475 623.97 306.45 624.045 308.605C618.135 306.06 617.15 305.53 617.795 299.145Z" fill="#38282C"/>
<path d="M625.249 303.05C627.664 303.93 629.004 304.885 631.164 306.225C631.339 308.38 631.424 310.355 631.499 312.51C625.589 309.965 624.604 309.435 625.249 303.05Z" fill="#38282C"/>
<path d="M529.04 247.775C531.275 248.755 532.785 249.485 534.915 250.665C534.955 252.915 534.97 255.16 534.975 257.41C532.975 256.27 530.25 254.91 528.675 253.345L529.04 247.775Z" fill="#38282C"/>
<path d="M512.675 238.35L518.7 241.36L518.8 247.915C513.11 244.91 511.69 245.15 512.675 238.35Z" fill="#38282C"/>
<path d="M561.67 249.61L567.64 252.805L567.445 259.035L565.62 258.105C560.64 255.585 560.51 255.145 561.67 249.61Z" fill="#38282C"/>
<path d="M528.97 245.19C528.86 243.005 528.555 241.35 529.355 239.355C531.27 240.415 533.17 241.45 535.04 242.58C535.095 244.535 535.19 246.59 535.195 248.535C532.785 247.56 530.89 246.99 528.97 245.19Z" fill="#38282C"/>
<path d="M528.84 230.689L535.055 234.15L535.34 240.62C532.76 239.325 530.605 238.55 528.835 236.27C528.9 234.345 528.875 232.62 528.84 230.689Z" fill="#38282C"/>
<path d="M536.65 243.625C538.34 244.295 541.325 246.07 543.03 247.01L543.06 253.33C536.74 250.315 536.41 250.62 536.65 243.625Z" fill="#38282C"/>
<path d="M483.243 157.895C493.08 164.321 506.086 171.403 516.395 177.326L568.465 207.454L651.59 255.54C665.63 263.64 680.365 272.46 694.51 280.18C677.885 289.18 659.17 300.265 642.775 309.915L642.745 320.82C642.815 324.41 643.45 330.355 641.545 333.08C637.41 335.97 632.895 333.76 632.755 328.6L632.695 326.27L632.71 321.265L632.75 316.67L632.855 313.385C632.56 308.26 633.225 291.39 632.49 287.93L632.545 286.125C632.71 282.625 632.725 279.3 632.735 275.8L632.38 275.675C627.32 272.09 616.985 266.555 611.35 263.35C599.75 256.77 588.19 250.12 576.66 243.41L455.191 173.192C464.329 168.851 474.091 161.581 483.243 157.895Z" fill="#38282C"/>
<path d="M632.455 270.785C636.115 272.815 639.625 273.05 642.995 270.36C642.42 274.12 642.625 281.475 642.645 285.485L642.775 309.915L642.745 320.82C642.815 324.41 643.45 330.355 641.545 333.08C637.41 335.97 632.895 333.76 632.755 328.6L632.695 326.27L632.71 321.265L632.75 316.67L632.855 313.385C632.56 308.26 633.225 291.39 632.49 287.93L632.545 286.125C632.71 282.625 632.725 279.3 632.735 275.8C632.73 274.055 632.59 272.52 632.455 270.785Z" fill="#424242"/>
<path d="M632.455 270.785C632.54 269.965 632.705 269.425 632.9 268.625C636.11 265.16 641.29 265.49 642.995 270.36C639.625 273.05 636.115 272.815 632.455 270.785Z" fill="black"/>
<path d="M398.584 146.267C397.979 143.869 398.182 143.051 398.356 140.515C397.453 143.182 397.78 147.418 397.955 150.296C403.607 154.666 434.733 171.17 436.65 173.887C442.572 175.665 450.849 182.663 455.012 184.336L455.915 184.739C472.445 194.893 489.559 204.464 506.279 214.369C535.72 231.812 565.255 249.194 594.87 266.335C596.74 267.419 599.335 269.008 600.985 270.403C604.57 272.042 606.015 272.846 609.325 274.994C615.495 278.329 626.505 284.866 632.545 288.77C632.71 285.207 632.725 281.821 632.735 278.258L632.38 278.13C632.3 280.095 632.45 281.536 631.47 282.992C629.14 282.508 626.965 281.251 624.9 280.055L512.63 213.848C484.425 197.22 456.4 180.3 427.885 164.189C420.036 159.754 405.202 151.591 398.584 146.267Z" fill="#A8A8A8"/>
<path d="M750.77 120.165C754.455 120.801 849.56 176.99 860.93 184.097C839.47 195.607 815.655 209.96 794.52 222.261L705.36 273.785C703.97 273.75 702.8 273.565 701.565 272.885C665.63 253.185 630.675 230.961 594.655 211.462C598.03 208.602 608.43 202.922 612.905 200.326L646.24 180.976L750.77 120.165Z" fill="#F7EFE0"/>
<path d="M649.595 61.3021C652.545 61.1141 676.885 76.0986 681.59 78.8601L741.36 113.839C738.57 116.355 729.165 121.525 725.525 123.632L697.265 139.999L584.57 205.435C579.61 203.069 568.055 195.834 562.865 192.835L521.465 168.9C512.375 163.6 501.274 156.823 492.011 152.114C496.474 149.948 504.306 145.121 508.794 142.534L542.455 123.087L649.595 61.3021Z" fill="#F7EFE0"/>
<path d="M407.343 177.264C413.069 179.849 413.77 179.407 413.827 185.903L413.757 186.38C411.277 186.689 409.699 185.279 407.245 183.879L407.343 177.264Z" fill="#38282C"/>
<path d="M415.48 181.796C421.206 184.381 421.907 183.939 421.964 190.435L421.894 190.912C419.414 191.221 417.836 189.811 415.382 188.411L415.48 181.796Z" fill="#38282C"/>
<path d="M415.346 179.894L415.403 173.483C417.621 174.851 419.316 175.625 421.652 176.73C421.726 178.302 422.002 180.142 422.2 181.732L420.031 182.718C418.512 181.751 416.897 180.818 415.346 179.894Z" fill="#38282C"/>
<path d="M423.163 175.688L423.219 169.277C425.437 170.645 427.133 171.419 429.469 172.524C429.543 174.096 429.818 175.936 430.016 177.526L427.847 178.512C426.329 177.545 424.713 176.612 423.163 175.688Z" fill="#38282C"/>
<path d="M399.012 163.266C401.112 165.156 403.21 166.102 405.686 167.442L405.722 174.14C403.608 173.181 400.927 171.501 398.868 170.295C398.719 167.703 398.855 165.828 399.012 163.266Z" fill="#38282C"/>
<path d="M398.84 171.833C399.908 172.923 404.136 175.592 405.725 176.661L405.774 182.982C403.524 181.677 401.004 180.039 398.765 178.655L398.84 171.833Z" fill="#38282C"/>
<path d="M399.345 179.876C400.413 181.043 404.641 183.899 406.23 185.044L406.279 191.81C404.029 190.414 401.509 188.66 399.27 187.178L399.345 179.876Z" fill="#38282C"/>
<path d="M407.427 168.584C409.847 170.068 411.106 170.777 413.741 171.99L413.711 178.885C412.193 178.574 408.848 176.141 407.368 175.167C407.302 173.143 407.403 170.648 407.427 168.584Z" fill="#38282C"/>
<path d="M415.399 165.024C417.171 165.745 419.96 167.513 421.71 168.539C421.765 170.561 421.703 172.764 421.687 174.803C419.722 173.981 417.321 172.683 415.374 171.705L415.399 165.024Z" fill="#38282C"/>
<path d="M407.321 160.491C409.386 161.667 411.608 162.734 413.738 163.804L413.733 170.485C411.393 169.436 409.49 168.213 407.305 166.892L407.321 160.491Z" fill="#38282C"/>
<path d="M399.815 155.925L405.735 159.314L405.695 165.973C403.882 165.069 401.621 163.695 399.815 162.671V155.925Z" fill="#38282C"/>
<path d="M389.323 131.708C390.329 126.389 397.228 126.858 399.563 131.358L399.207 131.91C399.204 134.404 399.346 137.825 398.872 140.19L398.355 140.515C397.453 143.134 397.779 147.295 397.955 150.121C397.986 154.938 397.303 185.607 398.313 187.329C399.37 189.134 399.873 190.944 399.013 192.98C397.465 196.648 389.66 196.006 389.422 192.116C389.143 187.546 389.289 182.038 389.287 177.393C389.377 164.17 389.335 150.947 389.162 137.726C389.477 136.239 389.34 133.338 389.323 131.708Z" fill="#424242"/>
<path d="M389.323 131.708C390.329 126.389 397.228 126.858 399.563 131.358L399.207 131.91C395.356 134.053 393.014 134.316 389.323 131.708Z" fill="black"/>
</svg>
