<svg xmlns="http://www.w3.org/2000/svg" width="64" height="64" viewBox="0 0 64 64">
  <rect width="64" height="64" rx="14" fill="#232a52"/>
  <g transform="translate(10.1 9) scale(0.6667)" color="#f6f5f0" fill="#f6f5f0">
    <path d="M28.2014 0.000121321C30.8426 0.0189928 33.6116 0.421092 35.9823 1.6426C36.6124 1.96737 37.0715 2.37662 37.649 2.71047C37.895 2.85243 38.8723 3.03729 39.1952 3.1108C39.9289 3.27507 40.6373 3.53617 41.3017 3.88721C43.5243 5.08011 44.7845 7.33741 46.506 9.00852C49.0988 11.5252 51.2206 12.0284 51.2545 16.1304C50.7286 16.2324 50.2032 16.3392 49.6792 16.4507C49.9286 13.4903 48.5137 12.8797 46.5361 11.1887C46.0154 10.7374 45.5124 10.2669 45.0271 9.77793C43.3065 8.03699 42.3168 5.87624 39.829 4.94276C41.9341 7.84871 42.3951 11.0611 42.2719 14.5485C42.1978 16.6365 42.1415 18.5571 42.5518 20.6222C42.0961 20.9938 41.6619 21.3544 41.1823 21.696C40.986 20.7378 40.8861 19.9759 40.772 19.0115C40.61 17.7153 40.8685 16.2648 40.3172 15.0536C39.5568 13.3832 36.7944 10.6709 34.7566 11.4986C34.4533 11.6219 34.0052 11.9942 33.9374 12.3359C33.4401 14.8396 35.9087 16.9017 36.8192 19.0338C37.8877 21.4663 38.1075 22.8677 37.2658 25.3119C39.3513 24.7552 41.7799 23.1116 43.4345 21.7445C44.2958 20.9794 45.0883 20.2866 46.0446 19.6356C51.6105 15.8469 60.414 17.0233 64.1968 22.8404C64.9204 24.0244 65.4291 25.416 65.5648 26.8017C65.7993 29.2386 65.0384 31.6667 63.4544 33.5335C61.3426 36.068 58.1689 37.5675 54.9059 37.8474C51.4657 38.1421 48.2036 37.3544 45.4021 35.3004C44.6077 34.7176 43.8305 33.9376 43.0643 33.3095C38.62 29.6661 35.6025 29.1182 30.0755 29.1329L25.5805 29.1379L20.5226 29.1359C19.7997 29.1375 18.5455 29.1072 17.8479 29.1804C16.543 29.3174 14.9882 29.9965 13.6582 30.1062C12.8463 30.1732 11.9248 30.1489 11.0996 30.1489L6.11142 30.1453C5.33611 30.1443 4.53442 30.1335 3.76222 30.1388C3.06057 30.1825 2.46175 30.5519 1.75775 30.6127C0.304379 30.7381 0.0521595 29.0329 0.00434421 27.9448C-0.0296592 27.1703 0.129531 25.8928 0.709943 25.305C1.55782 24.4463 2.69382 25.3326 3.64187 25.397C4.46834 25.435 5.32995 25.4134 6.16077 25.413C7.5035 25.4192 8.84629 25.4131 10.1889 25.3947C9.79642 23.3212 9.18337 22.7375 7.86184 21.1824C6.73554 19.857 5.84594 17.8135 5.69923 16.087C5.38277 12.6379 8.07892 11.2322 10.1875 9.27441C12.5556 7.07567 13.9096 4.03182 17.3696 3.21977C17.7519 3.05789 18.9168 2.95608 19.2043 2.75824C21.9069 0.898212 24.0897 0.26227 27.4497 0.0240051C27.598 0.00652366 28.034 -0.00107282 28.2014 0.000121321ZM58.455 20.0035C56.3576 19.0852 54.0451 18.7733 51.779 19.1032C51.3538 19.1615 50.7326 19.2579 50.3307 19.4132L50.2925 19.4284C50.1861 19.4508 50.0764 19.477 49.9644 19.5065C49.7405 19.5654 49.5077 19.6376 49.274 19.7198C49.2156 19.7403 49.1572 19.7614 49.0988 19.7831C49.0696 19.794 49.0405 19.805 49.0113 19.8161C48.953 19.8384 48.8948 19.8612 48.8369 19.8845C48.7501 19.9195 48.6639 19.9556 48.5787 19.9925C48.4083 20.0665 48.242 20.1442 48.0832 20.2241C48.0303 20.2508 47.9782 20.2777 47.9271 20.3048C47.876 20.3319 47.8258 20.3592 47.7767 20.3866C47.7522 20.4004 47.7279 20.4142 47.7039 20.428C47.6799 20.4418 47.6562 20.4556 47.6329 20.4695C47.4982 20.5177 46.9918 20.8233 46.8585 20.909C45.4475 21.8234 44.3159 23.1091 43.5884 24.6249C42.7615 26.3089 42.6473 28.2548 43.2712 30.0241C44.1009 32.3756 46.131 34.2877 48.3713 35.297C52.0957 36.9675 56.5143 36.7826 59.976 34.5433C66.223 30.5029 65.0331 22.9387 58.455 20.0035ZM41.703 24.9303C38.8914 26.5924 37.4273 27.0337 34.1471 27.6613C34.9496 27.7771 36.2197 28.0248 36.9974 28.2595C38.899 28.8011 40.0884 29.3667 41.7722 30.445C41.1999 28.5173 41.1942 26.8867 41.7602 24.9609L41.703 24.9303ZM1.58534 26.2453C1.24352 27.1861 1.19954 28.414 1.59859 29.3359L1.65932 29.3251C2.18988 29.2263 2.80686 28.9099 3.27512 28.8732C3.98885 28.8174 4.83876 28.8418 5.56778 28.8413L10.5024 28.8421C11.338 28.842 12.6753 28.8759 13.4785 28.7808C14.199 28.6954 15.5933 28.2898 16.3412 28.0887L17.8839 27.7497C16.4343 27.4479 14.972 26.9654 13.5625 26.7495C13.0205 26.6666 11.4822 26.6999 10.8695 26.7008L6.09807 26.7089C5.21848 26.7101 4.32827 26.7233 3.4494 26.6918C2.81557 26.669 2.16677 26.3166 1.58534 26.2453ZM40.7481 12.8329C40.4462 4.96449 35.0929 1.25205 27.5957 1.58485C27.4752 1.59015 27.3549 1.5975 27.2347 1.60696C23.9084 1.87938 20.9759 2.81494 18.778 5.41587C15.9045 8.81629 16.1318 12.9884 16.2764 17.1196C16.3654 19.6623 15.6611 23.3303 14.2255 25.4521C15.9779 25.9111 16.8641 26.2258 18.6704 26.3698C19.0018 26.8643 19.2072 27.2043 19.6469 27.6115L22.0164 27.601C20.7154 26.9144 19.9288 26.0691 19.4782 24.6408C19.235 23.8662 19.1453 23.0515 19.2141 22.2424C19.7246 22.2696 20.22 22.2947 20.7294 22.3426C20.6466 23.4175 20.8091 24.4961 21.5286 25.3463C22.0511 25.9656 22.7996 26.3499 23.6073 26.4137C25.1435 26.5265 26.915 25.3815 27.4612 23.9387C27.5398 23.7312 27.5993 23.4896 27.6472 23.2725C26.8956 22.8288 26.1961 22.4669 25.5864 21.8238C23.8619 20.0046 24.1821 18.0982 26.7362 17.4383C28.1913 17.0823 30.1016 17.1453 31.4221 17.9068C32.704 18.6462 32.6505 20.0092 31.9339 21.1157C31.2545 22.1647 30.3843 22.6942 29.3057 23.2556C29.4133 23.6793 29.5174 24.0975 29.7568 24.4699C30.6119 25.8002 32.3478 26.726 33.9283 26.3269C36.0248 25.7973 36.5861 23.1425 36.0506 21.3235C35.8232 20.5125 35.4612 19.6734 35.0222 18.9526C33.7162 16.8134 31.6296 14.4435 32.5364 11.753C32.8588 10.796 33.7822 10.0791 34.7428 9.85247C37.1187 9.29191 39.2797 11.2546 40.7481 12.8329ZM28.4824 25.3293C27.7015 26.4361 27.0536 26.9521 25.83 27.5862C26.7481 27.609 27.6667 27.615 28.5851 27.6041C29.491 27.609 30.3969 27.6067 31.3028 27.5969C30.0702 27.084 29.251 26.4372 28.4824 25.3293ZM17.0989 4.95144C16.658 5.12837 16.3541 5.2887 15.9557 5.53818C14.4276 6.50595 13.0444 8.57466 11.7666 9.94745C10.6702 11.1252 9.04824 12.1094 8.12045 13.2174C7.7355 13.6773 7.46886 14.2244 7.34395 14.8111C6.79998 17.3092 8.55319 19.7282 10.1385 21.4231C10.9941 22.3377 11.6375 24.1614 11.7223 25.4071C12.0884 25.3963 12.3662 25.3562 12.6158 25.0418C14.4253 22.7635 14.7802 19.2071 14.7486 16.3901C14.7287 14.6133 14.5661 13.1555 14.7573 11.4162C14.9699 9.47264 15.558 7.58882 16.489 5.86957C16.6878 5.56305 16.8963 5.25604 17.0989 4.95144Z" fill="currentColor"/>
    <path d="M11.1897 31.6003C11.7198 31.5736 12.2373 31.5879 12.7675 31.597C13.1683 33.7374 14.1005 36.144 15.4325 37.8804C15.7378 36.8605 16.1118 35.8488 16.4571 34.839C16.6901 35.5799 16.8307 36.5367 17.0503 37.32C17.7658 39.8727 19.0903 41.493 21.1133 43.0913C21.2725 41.6411 21.2858 41.2766 21.8848 39.8689C22.697 41.7753 23.3198 42.7374 24.89 44.1508C26.3278 45.4453 27.6075 46.7604 28.4829 48.5125C28.9062 47.7081 29.5609 46.6648 30.1783 45.9989C32.2381 43.7773 33.9742 42.9031 35.0561 39.8928C35.6011 40.9413 35.7669 41.9306 35.829 43.0846C36.2894 42.7163 36.7905 42.3438 37.2056 41.9249C38.524 40.5926 39.4683 38.958 39.967 37.1515C40.1724 36.4068 40.2842 35.6196 40.4882 34.9016C40.8736 35.8995 41.2425 36.8233 41.5491 37.8498C42.1973 36.9384 42.5637 36.2892 43.0557 35.2962C43.456 35.6568 43.8606 36.0112 44.2709 36.3599C43.4431 37.9167 42.1853 39.868 40.8708 41.0583C40.7881 40.6198 40.7022 40.1822 40.6129 39.7452C39.0428 42.6958 37.2648 44.2272 34.3309 45.8303C34.3209 45.2404 34.3348 44.6118 34.3371 44.0185C32.4716 45.9526 30.3937 47.4105 29.5306 50.0449C29.3661 50.5469 29.3406 51.0012 29.1997 51.4998L29.1838 51.5539C30.1716 51.6413 31.0584 51.9985 31.8657 52.5665C33.1506 53.4621 34.0166 54.8407 34.266 56.387C34.5186 57.9213 34.1694 59.5692 33.2475 60.8308C32.3335 62.1057 30.9466 62.9612 29.397 63.2058C27.8423 63.4484 26.2554 63.0577 24.9909 62.1215C20.7536 58.9569 22.4296 52.3086 27.7728 51.5419C27.5757 50.9052 27.5518 50.3128 27.2774 49.6049C26.6155 47.8977 25.5411 46.8282 24.2426 45.614C23.7204 45.1258 23.1405 44.5258 22.6264 44.0156C22.6387 44.6137 22.6374 45.2117 22.6222 45.8098C20.8319 44.9079 19.0537 43.5408 17.7558 42.0017C17.3896 41.5671 16.8265 40.9308 16.4726 40.5119C16.1273 40.7066 16.0492 40.9957 16.0483 40.9991C15.7794 40.7865 15.2617 40.188 15.0291 39.9153C13.0372 37.5317 11.7124 34.6622 11.1897 31.6003ZM29.6092 62.0713C29.2519 61.4647 29.0517 61.1647 28.2822 61.2005C27.7773 61.3658 27.634 61.6319 27.3834 62.0751C27.8259 62.1387 28.2559 62.2036 28.7045 62.1883C29.0015 62.1553 29.3173 62.1262 29.6092 62.0713ZM24.5064 59.9677C24.5394 60.3732 25.5196 61.2583 25.8863 61.4145C25.9523 60.441 25.4512 60.0169 24.5064 59.9677ZM32.4402 59.9781C32.3351 59.9246 32.24 59.9499 32.1187 59.9619C31.6803 60.1023 31.4096 60.2523 31.1941 60.6827C31.102 60.8671 30.9739 61.2254 31.2032 61.3453C31.2639 61.3123 31.3353 61.2765 31.3932 61.2392C31.7239 60.9736 32.3301 60.4749 32.4556 60.0718L32.4402 59.9781ZM26.0715 58.5532C25.2493 59.1565 26.2452 60.0297 26.9408 60.1615C27.8407 59.7345 26.8173 58.6263 26.0715 58.5532ZM31.1926 58.825C31.0211 58.5809 30.8628 58.5752 30.5842 58.6177C30.1414 58.857 29.5617 59.3643 29.6986 59.9218C29.8402 60.1295 30.0224 60.1463 30.259 60.1353C30.7216 59.8989 31.2822 59.3939 31.1926 58.825ZM33.1334 56.268C32.3509 56.739 31.8897 57.5267 32.7112 58.2447C32.8559 58.3369 33.0121 58.4414 33.1597 58.526C33.2452 58.0043 33.3985 56.7199 33.1334 56.268ZM23.8038 56.2628C23.6691 56.9745 23.6563 57.8129 23.8064 58.5232C23.9624 58.4291 24.1427 58.3297 24.2802 58.2136C24.9898 57.4789 24.6633 56.6659 23.8038 56.2628ZM29.3904 57.1436C29.2522 56.643 28.7326 56.3502 28.2326 56.4916C27.7373 56.632 27.4479 57.1455 27.5848 57.6418C27.7217 58.1381 28.2335 58.4309 28.7307 58.2972C29.2325 58.1625 29.5286 57.6447 29.3904 57.1436ZM29.9903 54.643C29.1301 55.2439 30.1917 56.119 30.9087 56.2288C31.7093 55.6723 30.7314 54.7232 29.9903 54.643ZM26.8297 54.6487C26.0634 54.8794 25.1507 56.0402 26.225 56.2193C26.4138 56.1467 26.6018 56.0812 26.758 55.9451C27.1562 55.5983 27.7115 54.812 26.8297 54.6487ZM25.8307 53.3585C25.5724 53.5319 24.3646 54.5174 24.5521 54.8298C25.2571 54.7734 25.9736 54.3439 25.8817 53.5347C25.8725 53.4536 25.8742 53.4296 25.8307 53.3585ZM31.0884 53.3638C31.0618 54.2981 31.5268 54.9014 32.5157 54.8035C32.336 54.3353 31.5585 53.5305 31.0884 53.3638ZM28.3763 52.568C28.0106 52.5995 27.7565 52.6224 27.3988 52.6936C27.6917 53.2653 27.9287 53.6183 28.6335 53.5935C29.1841 53.4292 29.3574 53.2013 29.6349 52.7093C29.2224 52.6233 28.7995 52.5551 28.3763 52.568Z" fill="currentColor"/>
    <path d="M6.06142 47.9975L6.05979 47.8781C6.00133 43.4271 7.28122 39.0612 9.73365 35.3463C10.1732 34.6665 10.8271 33.6725 11.38 33.1045C11.5051 33.9419 11.5983 34.8332 11.7422 35.6539C12.1033 37.8307 12.8921 39.9143 14.0633 41.7844C16.7425 46.0668 20.7192 48.2144 25.5417 49.3245C25.8377 49.9078 26.013 50.2918 26.1936 50.9185C23.6097 50.7418 20.4932 49.4482 18.3056 48.0763C14.3314 45.5838 11.4802 41.707 10.4848 37.0812C8.99961 39.6306 8.25668 41.932 7.79983 44.8239C8.22692 44.5048 8.68482 44.2177 9.12008 43.89C9.35453 43.7135 9.77373 43.4524 9.77373 43.4524C9.77373 43.4524 10.0578 43.291 10.2116 43.1916C9.55027 48.8741 10.3647 52.4055 13.9751 56.9143C14.0449 54.8059 14.4205 53.4464 15.2789 51.5328C15.66 52.6448 15.9257 53.498 16.4963 54.7289C17.9783 57.926 20.7374 60.3474 23.6025 62.3054C23.5878 62.2992 23.6171 62.3116 23.6025 62.3054C23.6025 62.3054 24.5552 62.9775 24.7752 63.1833C26.2597 64.3809 27.2493 65.1404 28.4714 66.6169C29.2605 65.7475 29.7674 65.1767 30.6756 64.4024C32.1094 63.1795 33.5653 62.173 35.0609 61.0543C37.1751 59.4742 39.1197 57.3514 40.3349 54.9993C40.9024 53.9007 41.2984 52.652 41.6504 51.465C42.4328 52.9587 42.9086 55.2506 42.9573 56.9258C43.1871 56.6664 43.4097 56.4003 43.6251 56.1285C46.7821 52.1705 47.2579 47.9856 46.708 43.1539C47.521 43.6975 48.325 44.2549 49.1189 44.8258C48.838 42.0471 48.1119 40.4502 46.9354 37.9568C47.6104 38.2482 48.2963 38.4942 48.9894 38.7387C50.4382 41.8226 50.8657 44.5893 50.8801 47.9918C50.0814 47.378 49.2775 46.811 48.4759 46.2077C48.5371 52.2799 45.6366 57.4484 40.8054 61.0314C40.8541 60.5724 41.0519 59.768 41.1455 59.2855C41.3413 58.2886 41.4183 57.2716 41.3738 56.2566C40.2093 58.4453 38.0516 60.7897 36.0678 62.2347C33.1912 64.3298 30.6362 66.0714 28.4892 69C27.3964 67.6625 26.561 66.6317 25.2353 65.512C23.9382 64.4162 22.6536 63.5497 21.2973 62.5499C18.9052 60.7868 16.969 58.7944 15.5315 56.1849C15.4688 58.1706 15.7604 59.072 16.1317 60.9913C15.37 60.4778 14.3262 59.511 13.6819 58.8546C10.201 55.3108 8.46251 51.1779 8.4498 46.2397C7.64224 46.81 6.84596 47.3961 6.06142 47.9975Z" fill="currentColor"/>
    <path d="M44.9726 36.8495L46.3497 37.6487C45.8319 39.3258 45.2616 40.9198 44.3273 42.4178C42.1782 45.794 38.994 48.384 35.2505 49.7993C34.0873 50.245 33.239 50.4614 32.0341 50.7418C31.5699 50.8292 31.2293 50.8946 30.7551 50.9309C30.9096 50.3592 31.1282 49.8514 31.3944 49.325C31.9763 49.1678 32.5779 49.047 33.1602 48.8803C34.4513 48.4991 35.7004 47.9889 36.8889 47.3565C40.1462 45.6416 42.7027 42.8434 44.1171 39.4447C44.4519 38.6379 44.717 37.695 44.9726 36.8495Z" fill="currentColor"/>
    <path d="M20.2283 30.5733L21.8277 30.5767C21.9852 31.136 22.1424 31.6228 22.4029 32.1454C23.218 33.8067 24.6695 35.0687 26.4282 35.6443C28.1202 36.1927 29.9611 36.0413 31.541 35.2245C33.3976 34.2772 34.427 32.7988 35.0528 30.859C35.562 30.9732 36.0621 31.0778 36.5613 31.2321C36.4686 31.5597 36.3673 31.8502 36.2541 32.1721C36.0769 32.6054 35.8658 33.0233 35.6217 33.4222C33.2247 37.3415 28.232 38.7416 24.2594 36.3269C22.0879 35.0071 20.7984 33.0367 20.2283 30.5733Z" fill="currentColor"/>
    <path d="M31.6335 30.5709C32.148 30.56 32.7293 30.6224 33.239 30.6868C32.6075 32.7343 30.6887 34.1292 28.5548 34.1435C27.0723 34.153 25.945 33.6276 24.8932 32.6106C24.294 31.9854 24.0075 31.4088 23.7068 30.6113L25.3405 30.5976C26.4683 32.6216 28.8126 33.3209 30.7036 31.7962C31.1373 31.4465 31.3686 31.0539 31.6335 30.5709Z" fill="currentColor"/>
  </g>
</svg>
