<svg width="151" height="200" viewBox="0 0 151 200" fill="none" xmlns="http://www.w3.org/2000/svg">
<path d="M90.3609 0.110428C97.1911 -0.110034 103.031 -0.262286 109.586 2.36771C111.682 3.2089 115.167 5.33248 117.201 5.90165C120.675 6.87353 123.89 6.31883 127.144 8.67734C130.781 11.3125 133.472 15.2492 136.548 18.1378C142.527 23.7522 149.012 25.4971 150.29 34.7224C151.488 42.7447 144.806 48.2803 142.651 55.3321C141.57 58.8715 144.381 65.1893 138.257 65.8602C135.673 66.1432 133.484 65.413 131.443 63.8119L131.072 63.9137C130.057 69.4547 137.522 74.6994 138.075 77.151C137.284 79.2091 135.087 78.6874 133.995 79.8961C138.053 86.0328 140.991 93.1866 139.455 100.462C138.239 106.219 137.884 113.013 136.554 118.482C135.524 123.581 127.901 138.676 129.371 143.24C130.823 147.747 136.069 149.983 135.301 159.169C134.681 166.576 135.267 169.911 129.334 175.878C137.008 179.449 138.183 181.836 137.848 190.265C135.588 192.508 134.92 193.204 131.678 193.413C129.894 196.378 129.593 197.639 126.13 198.772C120.391 200.648 112.482 200.363 106.965 197.996C103.815 196.645 103.197 193.35 102.229 190.304C97.2353 192.044 90.2864 192.379 85.3208 190.504C80.8537 191.889 78.8663 192.196 74.2355 192.103C74.2251 192.434 74.2055 192.766 74.1768 193.096C73.4966 200.69 61.3382 199.49 56.0441 199.239C50.9325 198.996 44.9672 196.046 41.5973 192.205C39.1356 189.399 39.8723 186.656 40.2208 183.44C40.274 183.436 33.7491 186.645 32.438 186.927C28.766 187.716 22.6073 187.854 19.2957 185.977C17.642 185.039 15.9648 182.997 14.5822 182.063C10.5921 179.367 7.13427 177.759 4.43252 173.534C3.79105 172.531 3.077 171.596 2.73567 170.374C2.34386 168.971 3.02271 168.023 3.7122 166.823C3.72557 165.758 2.87237 164.683 2.43199 163.55C-0.540425 155.904 -0.966342 151.302 2.14987 143.618C2.1807 142.233 6.0879 140.783 6.15966 140.638C9.23903 134.419 13.9912 127.542 21.44 126.591C23.1399 126.373 25.1347 126.162 26.557 126.799C27.6501 128.399 24.9647 134.396 24.3914 136.448C22.1843 144.348 24.9107 155.079 32.7049 159.202C33.1941 156.396 33.1038 154.158 33.6784 151.339C34.2855 148.361 36.3889 145.163 37.1657 142.592C38.716 137.462 39.2647 132.908 41.7621 127.963C44.3724 122.795 49.833 115.126 51.7159 109.884C55.413 99.5934 53.2007 95.7385 60.3265 86.2259L60.0836 86.1463C59.1669 85.8385 54.9527 83.5965 56.2086 82.5029C58.5267 80.4849 64.372 72.7537 62.9382 69.7224L62.5854 69.7363C62.4702 69.8768 62.3535 70.0162 62.2356 70.1543C59.1033 73.8181 54.705 74.9218 50.8723 71.6473C49.8275 69.0127 49.5012 65.5928 47.6371 63.1759C43.8218 58.2887 37.9174 57.6125 36.5444 50.7286C34.4975 40.4651 40.2549 36.8193 45.9812 29.7849C50.6911 23.9989 53.2698 12.9335 62.3985 11.4844C67.7649 10.6326 68.8467 9.10189 72.958 6.01679C77.8898 2.6692 84.5031 1.22365 90.3609 0.110428ZM41.603 137.384C43.1332 136.903 46.9026 135.554 48.3787 135.663L48.7852 135.945C48.409 137.251 44.6229 139.415 43.3615 140.459C33.9559 148.246 32.3368 174.755 43.5915 181.303C43.194 183.708 42.3389 187.999 43.8797 189.943C46.1315 192.784 51.9434 195.541 55.455 196.011C56.1551 196.099 56.8577 196.168 57.5617 196.217C57.4321 193.671 57.1631 192.043 56.7208 189.514C57.3123 190.234 57.9538 190.991 58.3467 191.85C59.1881 193.692 59.0921 196.775 61.7104 197.026C62.3469 197.087 63.7174 196.998 64.223 196.602C64.9215 196.054 65.0858 194.661 65.059 193.793C65.0031 191.973 64.6806 189.849 64.4058 188.024L66.8533 191.08C67.0164 192.581 67.2923 194.629 67.3477 196.09C68.7078 195.367 70.8988 194.482 71.2868 192.918C72.3392 188.675 67.4552 183.451 63.7011 182.436C59.9131 181.412 55.5527 182.138 51.7626 182.532C56.0798 178.87 61.5464 179.35 66.7987 180.567C70.1927 172.736 71.907 168.647 68.7605 159.608C67.9802 157.367 66.5777 155.028 65.889 152.804C74.3779 160.718 75.033 171.953 69.6402 181.913C72.0688 184.607 72.7275 185.852 74.3665 189.121C78.0404 188.852 81.2635 188.624 84.6777 187.017C86.2531 186.276 88.9071 183.605 90.2951 183.224C90.4296 184 90.0034 184.691 89.6714 185.455C89.1363 186.379 88.6051 186.912 88.6872 187.828C90.6141 190.056 99.6129 187.732 102.315 187.145C102.094 183.284 102.124 180.538 102.323 176.642C100.034 179.809 98.7433 181.211 95.0394 182.876C99.5482 177.675 102.354 171.694 102.505 164.785C102.605 160.236 102.045 158.535 104.969 154.593C107.201 151.584 108.165 148.659 108.793 144.961C112.143 142.451 115.547 139.746 117.563 136.007C117.94 135.306 118.264 134.56 118.963 134.152L119.219 134.354C118.853 138.952 115.255 143.616 111.728 146.382C109.565 152.243 110.424 153.181 105.816 158.539C105.337 163.684 104.067 190.412 106.383 193.185C107.893 194.995 111.241 196.883 113.639 197.091C114.333 197.151 114.557 196.997 115.08 196.598C115.853 194.611 114.906 191.345 114.555 189.059C116.863 191.597 117.773 193.6 117.682 197.205C120.863 197.162 123.822 197.388 123.065 192.934C122.782 191.273 122.339 189.482 122.121 187.825C125.094 191.008 125.09 191.655 125.486 196.028C129.277 193.416 129.119 190.669 126.824 186.794C125.402 184.391 123.001 183.399 121.168 181.602C120.725 176.643 121.214 171.488 121.892 166.568C122.276 163.786 122.385 160.07 122.901 157.433C124.236 150.618 125.499 143.787 127.362 137.098C128.153 134.262 128.61 129.915 129.521 127.23C131.108 122.551 134.079 119.04 134.611 113.684C135.017 109.594 135.144 104.666 134.209 100.593C133.923 99.3451 132.607 97.4599 132.57 96.1006L132.929 95.9069C135.022 96.843 135.618 98.1028 136.908 99.9925C136.74 94.4103 136.632 92.6286 134.618 87.3127C133.49 84.3362 127.869 78.1761 128.043 76.7556C129.228 76.16 132.072 76.4421 133.494 76.5171C127.478 70.81 128.419 65.8021 127.074 58.5127C126.347 54.5752 124.635 54.319 124.859 48.8904C125.125 42.4162 124.774 26.8977 121.101 21.7755L121.367 21.4047C122.612 21.8524 124.554 25.1034 125.215 26.5408C127.003 30.4264 127.489 33.0269 127.94 37.336C128.866 46.19 125.31 57.2649 135.284 62.1915C136.213 62.6501 138.078 62.3868 139.066 61.9607C139.797 61.0253 139.324 54.1394 140.002 51.9277C142.208 44.7291 148.1 43.1998 146.783 34.5006C145.927 27.7994 138.605 24.8166 134.01 20.4947C131.865 18.4775 127.898 12.9709 125.961 11.7914C121.446 9.04323 114.745 9.8847 109.612 6.24871C106.569 4.0932 97.5016 3.0501 93.8629 3.41899C82.5066 4.61734 77.2458 6.49127 68.4988 13.5553C66.3141 14.6388 63.3488 14.2287 61.222 15.2792C55.1088 18.2985 54.0444 23.6979 50.3219 29.338C45.4226 36.7614 32.7826 45.6462 42.9763 54.9108C45.5607 57.2595 49.9336 57.5184 51.3061 61.9994C52.8127 63.8327 52.5634 70.864 55.6357 70.4223C57.4367 70.1636 60.6097 67.8818 61.539 66.488C70.0696 53.6901 57.0968 41.1799 65.2116 27.3648L65.6075 27.203C65.9556 28.4447 65.2132 33.29 65.3513 35.6037C65.6948 41.3597 66.928 46.8628 67.498 52.4983C67.9676 57.14 67.0036 62.2783 66.4102 66.8045C65.8481 71.0883 66.8375 73.3496 64.3142 77.354C63.6751 78.3682 60.9164 82.2658 61.0228 82.8925C62.7314 83.5493 66.1663 81.0634 67.3927 82.1657C67.366 83.6461 62.7887 88.4202 61.6847 89.9386C58.1901 94.5934 57.5813 99.6155 56.5213 105.123C54.9985 113.034 50.4144 119.498 46.4223 126.297C44.1195 130.218 43.391 133.563 41.603 137.384ZM19.052 179.358C21.6266 180.485 23.0605 180.056 25.8394 179.65C23.3069 181.428 22.4149 181.737 19.5456 182.863C27.1846 184.867 30.0269 185.147 37.7728 181.248C35.811 177.394 33.9886 174.093 33.2391 169.766C32.9272 167.966 32.8885 165.647 32.56 164.1C30.7723 162.167 28.7898 160.597 26.9079 158.779C20.2228 152.323 19.7088 143.297 21.3582 134.648C21.6215 133.267 23.3088 131.412 23.4127 129.738C22.9729 129.397 23.2064 129.463 22.7347 129.421C19.261 130.114 16.3058 131.871 13.869 134.438C8.74572 139.835 8.80711 146.21 9.29142 153.157C5.56894 149.715 6.35065 148.772 4.61233 146.76C4.30974 146.899 4.13293 146.906 4.05653 147.291C3.04672 152.377 3.53894 158.024 5.66061 162.558C6.74655 164.906 8.34026 166.984 10.3266 168.642C11 169.201 12.1629 169.844 12.5394 170.466C10.6955 171.08 7.83986 169.833 6.74846 171.173C6.90371 174.181 15.6818 179.148 18.5023 179.16C18.7369 179.161 18.8501 179.232 19.052 179.358ZM134.219 182.853C130.919 179.749 126.382 178.231 125.174 177.001C126.218 175.068 127.599 173.511 128.799 171.583C132.275 165.999 133.516 160.385 131.816 153.939C131.472 152.632 129.306 148.586 128.311 147.805C127.918 148.664 125.814 158.379 125.698 159.407C125.353 162.448 123.948 177.628 124.602 179.5C125.771 182.845 130.218 182.49 131.023 190.766C133.819 189.962 134.833 190.178 135.353 187.061C135.002 185.46 134.723 184.413 134.219 182.853Z" fill="#412326"/>
<path d="M100.101 45.6609C100.257 45.6415 100.413 45.6252 100.569 45.6121C103.806 45.3288 108.681 47.3204 108.827 51.1678C108.996 55.648 105.508 57.2267 102.713 59.8149C101.862 61.0679 102.747 63.422 103.882 64.189C104.767 64.7871 107.788 66.0045 108.775 66.0575C112.887 66.2776 117.062 60.75 116.542 56.9099C116.533 56.8398 115.741 56.1399 115.626 55.4404C116.47 54.2944 118.274 54.526 119.465 54.9885C120.641 56.4695 119.265 56.6739 118.958 58.1839C117.838 63.6883 117.503 65.0927 112.955 68.5074C111.519 72.2653 111.386 76.6271 108.069 79.3608C105.181 81.7408 102.316 81.8336 98.8342 81.5845C92.8569 80.5727 91.6779 75.5406 87.8534 71.7829C86.3358 70.2921 84.4725 69.8681 82.6261 67.8116C81.0704 66.079 79.9618 63.7399 78.2445 62.4957C77.4758 61.9391 77.5719 61.9413 77.4595 61.1855C78.1732 59.3118 81.1781 58.225 81.4431 59.3863C83.4646 68.246 90.6381 70.8042 97.8675 65.4907C99.5504 64.2539 99.7229 61.6207 99.7545 59.7669C96.2061 59.3721 91.8623 57.5929 90.9805 53.7282C90.6588 52.331 90.9194 50.863 91.7025 49.662C93.5426 46.8511 97.0994 46.2481 100.101 45.6609ZM96.8735 77.2088C99.4085 78.6374 99.8658 78.614 102.797 78.6625C108.114 75.4601 108.52 75.2729 108.535 68.9999C106.779 68.8195 103.481 68.0274 102.234 68.2296C102.3 69.4108 102.464 70.9221 102.197 72.0418C100.673 71.4705 100.825 67.5319 97.4609 69.3805C96.0105 70.1775 94.4192 71.0121 92.9693 71.862C94.3646 74.7837 94.3431 75.1264 96.8735 77.2088ZM93.6184 52.0232C95.1243 51.8273 97.7403 51.5629 99.0841 51.1042C100.304 50.946 103.762 50.7061 104.547 50.367L104.791 49.916C103.719 48.2467 101.839 48.224 100.105 48.3815C96.5693 49.2186 96.1696 49.3727 93.6184 52.0232Z" fill="#412326"/>
<path d="M74.4359 115.269C79.1406 115.043 83.9125 114.957 87.3651 118.802C93.3124 125.424 96.8701 137.054 97.7438 145.835C98.0616 149.029 95.914 154.823 93.5544 156.84C89.7474 159.993 88.1067 160.526 83.4986 160.465C81.6612 159.066 77.8686 158.386 75.6072 156.27C72.5773 153.435 71.4804 150.589 71.1584 146.618C66.1342 146.736 64.6502 146.052 60.4786 143.228C55.0464 139.551 52.6061 127.269 57.0003 122.163C57.5869 122.383 57.4202 123.459 57.4028 124.15C57.2639 129.631 57.3416 134.344 60.8502 138.906C62.3441 140.602 67.4592 144.525 69.7967 143.616C70.7091 142.299 70.1762 136.229 70.2821 133.936C74.6616 140.9 72.6441 149.644 78.7237 155.002C79.2915 155.502 80.1095 156.05 80.8953 155.972C82.1011 155.027 81.6697 151.571 82.1556 149.569L82.4304 149.495C84.5581 152.775 83.339 155.494 84.8268 156.782C86.4702 157.485 88.2456 156.541 89.9689 155.93C89.9517 153.887 89.848 149.905 90.2991 147.966C91.1782 148.648 91.2912 152.115 92.4851 153.055L92.9784 152.894C95.1741 149.81 94.4658 140.354 92.9495 136.8C90.2276 130.419 88.3141 121.64 81.3379 118.589C78.3106 117.306 75.9519 116.562 72.8182 118.059C71.8305 118.532 68.613 119.695 67.5909 119.217L67.672 118.697C69.6013 116.639 71.738 115.749 74.4359 115.269Z" fill="#412326"/>
<path d="M79.0032 96.1156C81.0313 96.4899 82.5382 100.734 84.0441 102.087C85.3685 103.277 88.8765 106.934 90.7447 106.425C91.3512 105.489 91.1613 105.578 91.2312 104.31C94.3081 104.185 98.2993 110.496 99.4715 113.048C99.5776 113.288 99.8595 114.472 99.9443 114.799C99.7498 115.045 99.6011 115.329 99.3569 115.416C98.8071 114.853 94.9676 110.595 94.8822 110.573C86.0727 108.359 81.7077 105.897 79.0032 96.1156Z" fill="#412326"/>
<path d="M125.443 92.5972C128.428 94.0368 128.047 101.847 127.003 104.704C126.357 106.472 125.079 110.686 122.558 110.085C122.495 110.07 121.61 110.028 121.459 109.999C118.836 114.763 119.603 115.777 114.567 118.401L114.526 117.853C115.364 116.265 116.998 114.598 117.897 112.961C118.7 111.499 119.56 104.911 120.547 104.285L121.109 104.5C121.981 105.323 122.344 106.517 122.795 107.641C126.256 101.944 125.329 99.2798 125.443 92.5972Z" fill="#412326"/>
<path d="M79.3947 34.9846C79.9197 34.9541 80.4454 34.9341 80.9712 34.9249C85.8034 34.8523 86.9971 41.3073 83.2422 45.0205C82.8195 45.098 81.4525 45.3581 81.094 45.2825C76.5538 44.3256 76.2193 37.5881 79.3947 34.9846Z" fill="#412326"/>
<path d="M110.384 31.064C112.467 31.2654 113.275 32.2373 114.724 33.6343C115.359 36.213 115.163 37.6893 114.955 40.294L112.059 41.8004C110.636 42.0225 109.475 41.0064 108.194 40.1886C107.523 36.634 106.807 33.1459 110.384 31.064Z" fill="#412326"/>
</svg>
