<svg width="321" height="200" viewBox="0 0 321 200" fill="none" xmlns="http://www.w3.org/2000/svg">
<path d="M246.839 0.0172775C265.213 -0.450487 286.337 8.57731 292.013 27.4019C293.313 31.7145 293.921 36.0088 295.623 40.2253C302.468 43.106 310.09 43.3284 316.557 46.3029C323.208 49.3619 318.887 62.7657 316.567 67.7657C312.816 75.8518 305.685 81.3027 297.123 83.6119C303.323 98.0451 295.945 98.2407 284.054 101.284C277.245 103.026 272.276 102.04 266.013 99.3592C267.751 106.051 269.296 116.53 266.083 123.116C264.215 126.947 262.193 124.516 260.53 124.979C260.026 128.792 259.843 130.793 258.55 134.382C276.904 137.055 293.124 137.877 304.654 155.194C310.157 163.46 306.102 172.695 295.705 173.176C285.879 173.632 281.729 168.855 273.585 164.444C272.273 163.747 268.636 162.97 267.101 162.612C272.756 167.506 281.66 173.691 283.28 181.279C284.945 189.074 278.901 194.01 271.81 195.555C255.674 199.07 243.176 179.877 230.444 177.388C223.252 175.982 207.593 182.84 198.757 176.616C197.606 174.683 198.22 174.553 198.365 171.86C194.506 170.966 190.786 171.692 187.337 170.719C184.529 168.149 187.495 164.297 189.031 161.623C188.827 161.7 188.622 161.775 188.416 161.846C168.015 169.04 150.672 159.698 132.952 151.309C125.802 162.335 115.324 170.385 102.608 174.211C99.2966 175.237 95.2012 175.084 92.3219 177.2C89.7705 179.255 87.2102 182.627 85.4832 185.474C79.0199 196.133 62.4436 207.434 52.8744 193.564C52.2138 183.84 52.7421 181.051 60.4102 174.51C62.7176 172.542 69.2062 165.375 69.286 162.468L68.1788 162.306C49.6498 158.073 51.0915 162.986 38.0054 176.195C24.4745 189.854 -0.93165 186.908 9.01291 162.903C11.021 158.057 21.5919 153.576 26.2752 148.981C31.7832 143.575 35.9645 134.316 42.2317 129.661C56.1567 124.849 58.8061 130.893 68.3777 114.721C63.5917 115.917 52.8275 117.914 48.9052 114.006C48.0494 113.425 47.5568 111.116 46.5284 111.073C40.0186 110.803 23.4367 108.956 20.1665 102.124C20.0854 100.185 20.6343 99.7951 21.6993 97.9259C18.6671 95.1367 12.4993 93.2351 8.79147 89.7492C5.4763 86.6325 -3.82925 74.4124 1.73606 70.181C3.97636 69.4861 3.90316 70.6562 5.81269 70.4034C6.08622 68.6379 2.67863 61.6256 2.41167 59.1287C1.52212 50.7985 2.75745 41.8608 6.28374 34.2579C8.13603 30.2638 10.3318 25.9981 15.077 26.4678C18.1702 28.1784 19.8437 34.9166 22.533 38.9398C35.6957 58.63 64.4831 70.1716 86.8973 75.3738C91.0847 76.3454 98.1879 77.5244 102.481 77.3218C105.527 76.9699 108.771 75.7636 111.762 75.2588C139.997 70.4948 162.288 87.7913 188.547 70.7116C189.598 62.8014 193.037 65.1116 184.378 63.7955C179.666 63.0406 175.139 61.4028 171.035 58.9673C162.818 53.9913 162.338 51.3719 161.252 42.9765C159.798 37.3192 154.961 28.9333 157.839 23.1732C159.405 20.0396 167.044 22.5305 170.081 23.0789C177.61 24.4381 183.418 24.1623 190.898 22.712C189.575 17.7346 188.883 13.6186 189.188 8.3826C189.735 -0.976904 199.409 5.07026 205.017 6.34687C215.219 8.67021 224.036 4.82252 233.651 2.02814C238.025 0.756683 242.345 0.308164 246.839 0.0172775ZM197.045 9.61935C196.135 10.8284 195.011 12.2453 194.174 13.4722C194.611 16.1263 195.106 18.771 195.656 21.404C206.264 17.8087 216.561 13.3844 228.127 18.0982C229.421 18.626 230.938 19.6662 231.469 21.0141C231.023 22.4385 231.21 21.9933 229.678 22.9532C225.814 22.4962 219.222 20.361 215.763 20.8616C202.352 22.8021 191.39 30.0096 177.312 29.1467C171.801 28.8089 170.356 29.667 164.748 27.3578C164.469 30.5721 164.37 32.0514 163.494 35.1789C165.548 41.4583 165.872 41.6943 169.508 47.2624C168.302 49.2479 167.814 47.2774 168.067 49.2991C177.248 62.5954 188.913 57.3205 200.847 59.208C214.689 61.3971 220.768 36.2842 229.051 39.3644C230.579 42.6837 212.154 64.2079 205.796 63.8472C205.003 63.8021 195.294 66.0659 194.906 66.3938C192.647 80.2747 212.663 77.3959 216.939 79.7586L217.362 80.6829C216.714 82.3001 211.493 86.388 209.504 89.1031C212.764 89.074 221.772 88.3801 223.895 89.9519C223.356 94.4953 208.073 94.6717 204.615 91.6859C203.049 88.0719 207.365 86.5724 207.641 83.7715C205.567 82.2011 204.281 83.0869 202.363 82.4043C198.032 80.8635 194.036 77.7417 191.524 74.0085C183.887 80.9062 167.728 84.608 157.994 83.3403C132.627 80.0364 109.992 72.9054 88.2232 91.7924C76.3841 102.064 75.6498 115.946 65.383 126.925C58.435 134.253 50.8058 130.688 44.3978 134.151C39.9524 137.976 34.9375 146.391 31.4745 150.803C26.0392 157.729 10.9342 161.56 11.4733 171.485C12.3234 187.145 31.1264 176.827 36.8418 170.558C43.3943 163.371 48.3192 155.727 58.2229 156.193C75.5147 157.413 88.3025 162.265 104.65 152.801C111.505 148.607 115.755 144.839 120.741 138.401C123.066 135.398 126.642 128.428 129.896 127.302L130.735 127.648C132.127 131.803 125.365 140.795 122.628 143.9C145.938 148.593 164.128 166.454 189.322 156.985C188.389 152.872 185.78 146.181 186.634 142.757L187.38 142.131C192.014 142.984 194.968 157.687 193.973 161.778C193.596 163.328 192.839 165.384 192.17 166.871C194.363 166.956 195.936 166.932 198.086 166.893C201.512 166.831 206.577 164.454 209.099 166.248C209.406 168.761 205.157 172.464 203.452 174.23C206.19 174.378 211.159 174.74 213.684 174.386C224.611 172.856 232.05 170.119 241.935 177.383C246.536 180.765 265.013 194.844 270.661 189.86C271.642 187.305 269.11 184.655 269.871 182.325C272.907 182.431 274.62 187.096 275.634 189.483C277.248 187.815 278.834 186.303 278.801 183.814C278.748 179.865 275.526 176.507 272.815 173.97C262.747 164.554 227.575 141.557 227.119 128.309C227.099 127.721 227.183 127.392 227.43 126.868C228.585 126.237 228.05 126.352 229.567 126.627C233.071 129.673 237.197 139.303 240.254 139.753C243.277 137.358 241.479 130.756 244.857 129.096C247.985 130.487 245.874 136.038 247.44 138.954C250.442 139.675 254.458 131.481 255.311 129.029C256.678 125.097 253.684 115.057 254.672 111.979C256.704 112.269 261.299 118.521 262.817 120.226C263.97 113.438 264.566 105.822 260.681 99.348C259.08 96.6798 256.134 96.7497 255.284 94.6426C256.354 93.5227 257.026 93.3196 258.408 92.7106C265.728 94.6328 275.465 98.3754 282.684 97.0842L283.484 96.4917C282.978 94.6436 276.394 90.7138 274.46 89.0389C270.124 85.2813 268.111 81.3078 265.243 76.4618C263.621 73.7232 259.742 72.5127 260.724 68.7214C262.872 66.3023 267.175 65.013 269.903 67.3195C270.479 69.9769 266.165 71.0522 273.11 75.2208C279.737 79.1984 287.265 80.4737 294.887 78.9498C303.587 77.2106 307.521 73.2756 312.073 65.9481L313.344 63.8776C302.45 61.5243 294.415 53.0571 309.557 49.2301C291.273 44.43 292.176 47.6373 287.425 28.9595C283.233 12.4827 259.807 2.9679 243.863 5.15564C224.135 6.79352 221.337 16.6541 197.045 9.61935ZM16.416 41.3837C15.891 39.5084 14.5083 33.4153 13.1867 32.521C7.29481 41.0787 5.99943 48.2533 7.23569 58.4123C8.3101 67.2379 16.8242 75.4113 17.4857 78.0856C15.4002 79.8393 7.7743 76.7728 5.26893 75.9264C10.389 87.6773 18.4667 91.9547 30.6614 94.4892C32.8281 94.9396 35.4512 94.1383 36.4126 96.2134C35.3508 98.5142 28.7979 100.479 26.0335 101.762C37.8524 107.1 45.0345 106.607 57.2574 103.169C58.1099 102.93 58.8718 103.197 59.5925 103.624C59.538 107.497 55.4229 108.127 54.3729 111.109L54.4123 111.753C60.1104 111.318 65.2356 111.192 70.4439 108.508C78.0985 94.9124 80.6142 90.5252 93.5741 81.4308C71.0233 77.6394 50.1203 70.2584 31.657 56.0763C26.3385 51.9912 20.882 44.6313 16.416 41.3837ZM65.2793 195.138C79.4487 191.02 79.4867 182.196 89.1137 173.453C91.4985 171.287 96.223 170.822 99.5246 169.931C112.738 166.364 119.472 160.128 128.274 150.298C125.421 149.406 121.942 148.542 118.946 148.386C104.948 159.546 94.816 165.234 76.0055 163.109C75.4251 163.043 74.8448 162.972 74.2653 162.897C72.8433 166.651 71.4024 169.426 68.9083 172.572C64.499 178.134 54.4053 183.333 57.8316 191.765C59.1097 194.91 62.2494 195.554 65.2793 195.138ZM245.729 145.231C248.623 148.153 258.336 156.272 261.866 158.6C280.507 157.41 279.37 165.672 292.425 168.856C298.172 168.567 300.339 168.128 302.67 162.546C299.572 154.48 292.022 148.076 284.323 144.442C276.233 140.623 264.613 141.504 256.084 138.192C253.209 141.648 250.023 143.831 245.729 145.231ZM294.08 93.5969C295.775 89.7482 294.345 86.6207 290.439 85.0964C285.894 83.322 280.72 83.7616 276.171 82.0083C275.656 81.8108 274.003 81.3397 273.46 81.244C275.349 84.9871 286.604 92.2639 290.704 94.2316C291.944 94.827 293.008 94.1261 294.08 93.5969Z" fill="#502A35"/>
<path d="M266.746 35.3543C274.485 35.0334 274.963 46.8575 269.502 50.0314C260.851 50.4743 262.382 40.0798 266.746 35.3543Z" fill="#502A35"/>
</svg>
