<svg width="172" height="200" viewBox="0 0 172 200" fill="none" xmlns="http://www.w3.org/2000/svg">
<path d="M70.1671 0.203293C71.9439 0.0570365 74.2895 -0.543936 75.0838 1.39177C74.962 3.38053 73.4323 4.58302 72.0528 6.02937C77.2542 3.17764 82.9813 1.41431 88.886 0.846601C98.572 -0.158501 110.528 1.97074 117.934 8.90144C119.318 10.196 120.52 11.3628 121.998 12.5587C123.168 12.5906 124.848 12.739 126.023 12.9029C134.01 14.0168 140.872 18.8914 145.467 25.3853C146.779 27.2393 149.563 31.9256 151.036 33.0742C156.464 37.3071 161.975 38.7372 166.43 44.6197C170.32 49.756 172.457 57.1076 169.893 63.3342C169.203 65.0085 166.989 67.3961 166.349 69.033C165.084 72.2693 164.308 75.6937 162.991 78.9509C161.115 83.5888 158.654 87.9842 157.087 92.7439C155.913 96.3082 157.881 102.041 157.53 104.68C155.403 108.077 148.21 106.59 145.039 105.465C145.177 114.86 148.215 116.693 152.869 124.41C155.694 129.092 157.708 134.216 158.061 139.711C158.193 141.762 158.219 145.439 156.884 147.096C156.041 147.285 155.875 146.913 154.921 146.312C154.688 146.762 155.54 149.642 155.704 150.472C156.294 153.601 156.465 156.794 156.212 159.967C155.658 166.325 152.994 173.912 148.07 178.34C147.221 179.104 146.63 179.346 145.567 179.244C144.898 177.494 147.547 174.096 148.453 172.474C153.777 162.95 154.144 151.874 149.748 141.917C149.3 140.902 147.645 137.869 147.777 136.903C149.155 137.033 153.682 141.006 155.003 142.081C154.114 136.426 153.239 131.91 150.32 126.758C144.522 116.527 141.964 116.174 141.631 104.331C140.776 103.431 138.148 100.504 137.248 100.05L137.008 100.34C137.011 103.029 132.824 112.721 129.923 112.998C129.799 112.495 129.827 112.086 130.042 111.602C132.105 106.955 134.036 102.692 134.651 97.5511C134.936 95.1656 134.425 92.2518 134.392 89.6794C134.328 84.5832 135.104 80.4039 133.633 75.3943C132.882 72.8351 131.318 73.0823 131.06 71.5919L131.365 71.3173C133.348 71.3428 135.493 72.1453 138.034 72.3205C135.815 68.6863 133.159 66.3319 131.163 62.0083C127.821 54.1657 129.078 46.8779 126.22 38.6127C123.809 31.6369 120.834 29.5445 117.69 23.8009C132.38 31.4428 129.59 46.7591 133.417 59.9923C134.518 63.8016 139.141 67.6172 140.638 71.2774C141.963 74.5182 138.24 74.4601 136.589 75.0336C136.276 76.6045 137.219 78.8624 137.164 80.4055C136.875 88.4524 136.654 97.3257 144.905 101.772C146.938 102.868 151.423 104.132 153.744 103.379C155.306 101.979 153.18 99.158 153.327 97.3369C154.344 84.7531 165.29 74.9149 162.406 61.6336C162.081 60.1347 160.424 56.7823 160.743 55.7025C163.457 55.4908 165.348 62.855 166.133 63.3688L166.463 63.131C166.736 62.1553 167.5 59.5557 167.573 58.6826C168.114 52.2025 163.892 45.8494 158.804 42.2073C155.16 39.5991 151.798 38.028 148.329 35.0371C145.161 32.3597 143.536 28.5444 140.944 25.3729C138.612 22.5195 135.774 20.2756 132.53 18.5032C128.597 16.3545 124.636 15.9022 120.232 15.4541C117.828 13.6149 115.644 11.4557 113.139 9.76963C104.059 3.65572 94.6555 3.16471 84.3075 5.01464C78.2228 5.93699 73.3982 8.72137 68.0285 11.4541C67.4506 11.7479 67.0754 11.5327 66.5726 11.2883C65.7132 9.41141 68.9555 4.9866 70.2306 3.52651C59.1231 6.4016 51.3555 12.0949 44.6704 21.5372C43.1701 23.6558 42.2332 25.7039 40.9293 27.9148C26.6181 31.1157 22.0113 40.4214 17.5002 53.0718C18.4577 51.8808 21.7666 47.9665 23.1206 47.7744C23.4128 48.9043 22.016 50.4161 21.5272 51.5363C16.3656 63.3677 2.7024 72.4728 3.60468 86.2374C3.79602 89.1543 5.34959 93.4268 7.42467 95.1703L7.81781 95.109C8.05314 89.6934 7.72956 88.9008 11.0217 84.2074C10.8804 86.0908 10.5659 87.7008 10.5115 89.6722C10.2184 96.163 13.411 101.482 17.9194 105.876C21.6209 109.484 25.6652 113.615 25.7216 119.13C25.7392 120.851 25.3925 122.208 25.0162 123.889C26.4639 123.876 27.9116 123.841 29.3582 123.784C38.1946 123.375 42.242 115.431 42.8666 107.665C43.8313 95.6756 40.2747 85.3466 36.1836 74.334C32.787 65.1918 30.1758 54.3609 36.1245 45.6696C36.3991 45.2688 36.5396 45.3039 36.952 45.2979C37.5637 46.6175 35.9079 50.6638 35.7278 52.3372C34.6116 62.7013 38.0569 70.465 41.4326 79.9926C43.0915 84.5716 44.4468 89.2549 45.4899 94.0121C46.7933 99.7942 45.5592 104.791 47.6986 110.627C48.9275 113.979 56.5136 120.252 56.7398 120.984C53.4859 122.122 47.4748 115.74 45.7566 113.24C44.5604 115.886 44.0397 118.78 42.5502 121.233C41.8214 122.577 39.3471 123.884 38.6392 125.08C35.821 129.84 32.2693 134.239 29.8467 139.204C27.9586 143.075 27.193 147.306 26.3234 151.472C28.0463 149.871 35.9057 141.291 37.5049 141.463C36.9825 143.458 34.7901 146.49 34.0041 148.543C30.4411 157.854 31.6101 165.77 36.8223 174.19C38.1831 176.388 39.8983 178.226 41.0296 180.477C41.3315 181.077 41.227 181.189 41.0159 181.664C40.7613 181.689 40.4284 181.717 40.1853 181.607C32.6064 178.149 29.0201 168.966 28.4911 161.135C28.2621 157.748 28.785 155.172 29.7821 151.968C28.8331 153.397 27.2347 156.744 25.3158 156.067C24.4353 155.037 23.6718 153.488 23.5396 152.161C22.4949 141.668 28.6948 133.884 34.207 126.222C30.9824 127.257 26.7468 127.78 23.4623 126.406C20.7294 125.263 22.4264 121.39 22.2892 118.368C22.0666 113.469 17.0465 109.949 13.9809 106.476C12.8238 105.451 10.6544 102.178 9.57948 101.477C-4.3685 92.3749 -1.39966 77.0315 7.76832 65.6707C8.51693 64.7429 12.9588 58.7139 13.2367 57.5483C14.5517 51.7041 14.9459 47.1126 17.9681 41.7193C23.3812 32.0589 28.3773 28.3302 38.7582 25.206C40.2271 22.7549 41.2605 20.4549 42.998 18.0219C49.543 8.8569 59.0939 2.24291 70.1671 0.203293Z" fill="#502A35"/>
<path d="M93.3604 76.3927C106.899 75.2361 109.476 86.8704 100.432 95.0363C98.6955 96.6039 96.8615 97.6236 94.8378 98.7931C95.1515 100.482 95.5787 102.024 96.0213 103.681C100.878 109.024 113.29 110.109 117.49 103.462C119.559 100.188 120.271 97.3654 120.822 93.6276C121.406 89.6666 119.198 90.8125 118.768 88.5408C119.263 87.8637 120.281 87.5912 121.116 87.2638C124.12 88.6868 125.868 90.1532 125.18 93.8069L124.804 93.9655C124.263 93.513 124.155 93.3786 123.512 93.1196C120.964 96.1888 125.411 101.637 115.246 109.868C113.23 116.393 113.616 123.026 107.283 127.76C102.938 131.009 96.977 131.661 91.7376 130.945C84.8071 129.874 81.1518 123.775 77.2067 118.621C70.6879 116.944 68.1028 115.476 63.8526 109.869C63.3404 109.194 62.9459 108.121 62.2597 107.123C61.4322 107.958 60.928 108.804 59.7904 108.271C59.6323 107.996 59.4877 107.707 59.4038 107.399C58.9994 105.906 59.2471 104.313 60.0851 103.013C60.8892 101.757 61.8347 101.06 63.2744 100.768C64.2749 101.06 63.9428 100.815 64.5179 101.688C64.6795 102.69 64.1179 103.577 63.6673 104.509C65.7919 108.088 67.691 110.731 71.2451 113.111C78.5602 118.009 87.4758 113.235 91.9187 106.827C93.5913 104.415 92.7658 101.94 92.117 99.3426C84.2279 98.8942 70.9037 94.5445 77.645 83.0889C80.0464 79.0077 88.7195 76.9816 93.3604 76.3927ZM94.2077 111.785C90.9309 112.861 86.2029 116.268 82.5099 118.114C84.2056 121.501 85.5162 124.366 88.9994 126.31C93.0992 128.062 97.722 128.138 101.878 126.523C108.979 123.749 110.409 117.998 110.487 111.19C108.149 111.184 100.099 110.204 98.9017 110.394C98.1687 110.921 97.568 111.208 97.3104 112.034C97.5092 113.562 98.1849 116.794 97.4317 117.99C96.0705 117.392 94.9755 113.378 94.2077 111.785ZM85.4004 86.1565C91.4613 83.898 95.7272 83.2907 102.024 83.8568C99.2445 81.0534 97.8787 80.1187 93.7373 80.508C89.9476 81.1001 79.5677 82.8275 80.3985 88.3577L80.7334 88.5628C82.1473 87.8139 83.9736 86.789 85.4004 86.1565Z" fill="#502A35"/>
<path d="M136.616 152.886C137.252 152.903 137.223 152.902 137.812 153.151C138.8 154.196 139.553 156.502 139.892 158.075C141.946 167.587 137.031 182.719 127.033 185.993C126.214 186.261 125.615 186.065 124.923 185.629C124.466 184.784 124.729 184.002 124.904 183.043L124.664 182.821C123.594 183.628 121.95 186.36 120.812 187.499C115.716 192.604 109.183 196.345 102.262 198.334C100.679 198.789 96.9608 199.598 95.5865 198.813L95.5615 198.308C96.2708 197.429 97.4417 197.137 98.5205 196.749C112.799 190.704 122.427 185.334 126.992 169.874C128.59 174.561 128.458 178.115 127.46 182.832C136.433 173.879 139.049 165.336 136.616 152.886Z" fill="#502A35"/>
<path d="M48.6861 153.469C49.2268 154.263 48.9593 155.26 48.9398 156.269C48.8686 158.733 49.3505 161.181 50.3501 163.433C52.941 169.329 57.3845 173.244 63.3354 175.565C63.0706 173.587 61.9363 166.285 63.9814 165.41C64.5981 165.878 64.6742 167.312 65.0641 168.135C66.0128 170.299 67.091 172.169 68.517 174.043C72.3906 179.132 83.0795 185.595 83.5267 192.515C83.6092 196.336 83.6326 196.923 81.4047 200C81.4236 189.359 77.2977 186.912 70.0068 180.104C68.7535 178.934 67.7258 176.921 66.3996 175.979C65.5966 176.54 66.2927 179.078 64.4271 178.767C58.2661 177.742 52.2355 173.047 49.1224 167.718C46.8136 163.765 45.218 157.089 48.6861 153.469Z" fill="#502A35"/>
<path d="M59.5808 61.2422C67.9836 60.2462 71.5716 73.2028 62.4699 76.0438C59.2465 76.2242 56.7551 75.4808 55.1702 72.3613C54.202 70.4512 54.0516 68.2296 54.754 66.2064C55.6365 63.6359 57.2269 62.3611 59.5808 61.2422ZM61.6487 67.9178C62.3605 67.829 62.968 67.3616 63.2363 66.6963C63.5047 66.031 63.3914 65.2725 62.9403 64.715C62.4894 64.1572 61.7713 63.8878 61.0648 64.0109C60.0082 64.1954 59.2918 65.1887 59.4502 66.2493C59.6088 67.3099 60.5845 68.0503 61.6487 67.9178Z" fill="#502A35"/>
<path d="M106.843 48.8608C115.59 48.6695 118.794 60.3725 109.41 63.4645C103.96 64.7736 99.1259 55.8036 102.703 51.4327C104.201 49.6031 104.532 49.3254 106.843 48.8608ZM107.888 55.5317C110.182 53.7508 109.688 51.8068 107.045 51.1135C105.817 52.3542 104.948 53.2785 105.965 54.9951C106.804 55.4938 106.912 55.5218 107.888 55.5317Z" fill="#502A35"/>
<path d="M117.046 127.013L117.521 127.304C117.529 127.416 117.537 127.528 117.545 127.64C115.398 143.14 93.5689 147.466 84.4078 138.055C82.9788 136.753 82.6813 136.33 81.6089 134.741C89.2887 138.287 93.8114 141.639 102.748 138.946C109.4 136.942 113.743 133.112 117.046 127.013Z" fill="#502A35"/>
<path d="M102.032 33.4286C106.812 32.8972 110.265 35.1009 112.671 39.0408C111.58 38.7246 109.443 37.6901 108.177 37.212C107.392 37.0056 105.715 36.5393 104.952 36.5772C103.317 36.6586 100.043 38.3202 98.569 37.5323C97.722 35.2645 100.391 34.0485 102.032 33.4286Z" fill="#502A35"/>
<path d="M57.0777 46.394C57.5414 46.4213 58.0017 46.4894 58.4533 46.5978C59.3017 46.7968 60.231 47.4022 60.684 48.1604C60.3305 50.1104 55.9117 49.6639 54.5228 50.4491C53.1526 51.2241 52.0247 52.6405 51.0209 53.8325C50.5225 54.4975 50.1942 54.9484 49.3593 54.9179L49.08 54.4296C48.9835 50.1731 53.1752 47.0714 57.0777 46.394Z" fill="#502A35"/>
</svg>
